<svg width="597" height="470" viewBox="0 0 597 470" fill="none" xmlns="http://www.w3.org/2000/svg">
<path d="M597 359.456H0V359.691H597V359.456Z" fill="#EBEBEB"/>
<path d="M206.825 365.453H179.148V365.688H206.825V365.453Z" fill="#EBEBEB"/>
<path d="M547.771 370.492H480.107V370.727H547.771V370.492Z" fill="#EBEBEB"/>
<path d="M118.672 370.492H51.0076V370.727H118.672V370.492Z" fill="#EBEBEB"/>
<path d="M282.978 317.532H52.4286C50.6225 317.53 48.8914 316.963 47.6155 315.957C46.3395 314.95 45.6228 313.587 45.6228 312.165V57.0204C45.6385 55.6067 46.3621 54.2549 47.6364 53.2587C48.9107 52.2625 50.6328 51.7024 52.4286 51.7H282.978C284.786 51.7 286.52 52.2655 287.799 53.2721C289.078 54.2787 289.796 55.6439 289.796 57.0674V312.165C289.796 313.588 289.078 314.953 287.799 315.96C286.52 316.967 284.786 317.532 282.978 317.532ZM52.4286 51.888C50.7017 51.8905 49.0465 52.4323 47.8265 53.3946C46.6065 54.3568 45.9213 55.6608 45.9213 57.0204V312.165C45.9213 313.524 46.6065 314.828 47.8265 315.79C49.0465 316.753 50.7017 317.295 52.4286 317.297H282.978C284.705 317.292 286.36 316.75 287.581 315.788C288.802 314.827 289.491 313.524 289.497 312.165V57.0204C289.491 55.6607 288.802 54.3582 287.581 53.3967C286.36 52.4353 284.705 51.893 282.978 51.888H52.4286Z" fill="#EBEBEB"/>
<path d="M541.252 317.532H310.691C308.885 317.527 307.154 316.96 305.877 315.954C304.6 314.949 303.879 313.587 303.873 312.165V57.0204C303.892 55.6058 304.618 54.254 305.894 53.2581C307.171 52.2622 308.894 51.7024 310.691 51.7H541.252C543.046 51.7049 544.765 52.2661 546.037 53.262C547.308 54.2579 548.03 55.6083 548.046 57.0204V312.165C548.048 312.868 547.873 313.565 547.533 314.216C547.192 314.866 546.692 315.458 546.061 315.956C545.43 316.454 544.681 316.85 543.856 317.121C543.031 317.391 542.146 317.531 541.252 317.532ZM310.691 51.888C308.964 51.893 307.309 52.4353 306.088 53.3967C304.867 54.3582 304.178 55.6607 304.172 57.0204V312.165C304.178 313.524 304.867 314.827 306.088 315.788C307.309 316.75 308.964 317.292 310.691 317.297H541.252C542.979 317.292 544.634 316.75 545.855 315.788C547.076 314.827 547.765 313.524 547.771 312.165V57.0204C547.765 55.6607 547.076 54.3582 545.855 53.3967C544.634 52.4353 542.979 51.893 541.252 51.888H310.691Z" fill="#EBEBEB"/>
<path d="M117.848 122.585H217.308C218.309 122.584 219.3 122.738 220.225 123.039C221.15 123.34 221.99 123.782 222.698 124.339C223.406 124.896 223.967 125.558 224.349 126.286C224.731 127.014 224.927 127.795 224.926 128.583V359.24H110.302V128.573C110.305 126.994 111.099 125.479 112.512 124.358C113.925 123.237 115.842 122.6 117.848 122.585Z" fill="#F5F5F5"/>
<path d="M134.54 136.563H119.758V162.47H134.54V136.563Z" fill="#EBEBEB"/>
<path d="M215.374 136.563H200.592V162.47H215.374V136.563Z" fill="#EBEBEB"/>
<path d="M161.477 136.563H146.695V162.47H161.477V136.563Z" fill="#EBEBEB"/>
<path d="M188.425 136.563H173.643V162.47H188.425V136.563Z" fill="#EBEBEB"/>
<path d="M134.54 177.463H119.758V203.369H134.54V177.463Z" fill="#EBEBEB"/>
<path d="M215.374 177.463H200.592V203.369H215.374V177.463Z" fill="#EBEBEB"/>
<path d="M161.477 177.463H146.695V203.369H161.477V177.463Z" fill="#EBEBEB"/>
<path d="M188.425 177.463H173.643V203.369H188.425V177.463Z" fill="#EBEBEB"/>
<path d="M134.54 218.353H119.758V244.259H134.54V218.353Z" fill="#EBEBEB"/>
<path d="M215.374 218.353H200.592V244.259H215.374V218.353Z" fill="#EBEBEB"/>
<path d="M161.477 218.353H146.695V244.259H161.477V218.353Z" fill="#EBEBEB"/>
<path d="M188.425 218.353H173.643V244.259H188.425V218.353Z" fill="#EBEBEB"/>
<path d="M134.54 259.252H119.758V285.158H134.54V259.252Z" fill="#EBEBEB"/>
<path d="M215.374 259.252H200.592V285.158H215.374V259.252Z" fill="#EBEBEB"/>
<path d="M161.477 259.252H146.695V285.158H161.477V259.252Z" fill="#EBEBEB"/>
<path d="M188.425 259.252H173.643V285.158H188.425V259.252Z" fill="#EBEBEB"/>
<path d="M134.54 300.142H119.758V326.048H134.54V300.142Z" fill="#EBEBEB"/>
<path d="M215.374 300.142H200.592V326.048H215.374V300.142Z" fill="#EBEBEB"/>
<path d="M161.477 300.142H146.695V326.048H161.477V300.142Z" fill="#EBEBEB"/>
<path d="M188.425 300.142H173.643V326.048H188.425V300.142Z" fill="#EBEBEB"/>
<path d="M470.364 144.083H541.575C543.217 144.086 544.791 144.6 545.953 145.515C547.114 146.429 547.768 147.669 547.771 148.962V359.24H464.191V148.971C464.191 147.68 464.841 146.441 465.997 145.525C467.154 144.609 468.724 144.091 470.364 144.083Z" fill="#F5F5F5"/>
<path d="M488.25 156.801H474.818V180.348H488.25V156.801Z" fill="#EBEBEB"/>
<path d="M512.751 156.801H499.319V180.348H512.751V156.801Z" fill="#EBEBEB"/>
<path d="M537.24 156.801H523.808V180.348H537.24V156.801Z" fill="#EBEBEB"/>
<path d="M488.25 193.978H474.818V217.525H488.25V193.978Z" fill="#EBEBEB"/>
<path d="M512.751 193.978H499.319V217.525H512.751V193.978Z" fill="#EBEBEB"/>
<path d="M537.24 193.978H523.808V217.525H537.24V193.978Z" fill="#EBEBEB"/>
<path d="M488.25 231.165H474.818V254.712H488.25V231.165Z" fill="#EBEBEB"/>
<path d="M512.751 231.165H499.319V254.712H512.751V231.165Z" fill="#EBEBEB"/>
<path d="M537.24 231.165H523.808V254.712H537.24V231.165Z" fill="#EBEBEB"/>
<path d="M488.25 268.332H474.818V291.879H488.25V268.332Z" fill="#EBEBEB"/>
<path d="M512.751 268.332H499.319V291.879H512.751V268.332Z" fill="#EBEBEB"/>
<path d="M537.24 268.332H523.808V291.879H537.24V268.332Z" fill="#EBEBEB"/>
<path d="M488.25 305.519H474.818V329.066H488.25V305.519Z" fill="#EBEBEB"/>
<path d="M512.751 305.519H499.319V329.066H512.751V305.519Z" fill="#EBEBEB"/>
<path d="M537.24 305.519H523.808V329.066H537.24V305.519Z" fill="#EBEBEB"/>
<path d="M307.228 83.9044H422.903C425.253 83.9044 427.506 84.6392 429.167 85.9473C430.829 87.2553 431.762 89.0294 431.762 90.8792V359.24H298.381V90.8792C298.381 89.031 299.312 87.2584 300.971 85.9506C302.63 84.6428 304.881 83.9069 307.228 83.9044Z" fill="#F5F5F5"/>
<path d="M326.643 100.176H309.449V130.312H326.643V100.176Z" fill="#EBEBEB"/>
<path d="M420.682 100.176H403.488V130.312H420.682V100.176Z" fill="#EBEBEB"/>
<path d="M357.985 100.176H340.792V130.312H357.985V100.176Z" fill="#EBEBEB"/>
<path d="M389.34 100.176H372.146V130.312H389.34V100.176Z" fill="#EBEBEB"/>
<path d="M326.643 147.759H309.449V177.895H326.643V147.759Z" fill="#EBEBEB"/>
<path d="M420.682 147.759H403.488V177.895H420.682V147.759Z" fill="#EBEBEB"/>
<path d="M357.985 147.759H340.792V177.895H357.985V147.759Z" fill="#EBEBEB"/>
<path d="M389.34 147.759H372.146V177.895H389.34V147.759Z" fill="#EBEBEB"/>
<path d="M326.643 195.341H309.449V225.478H326.643V195.341Z" fill="#EBEBEB"/>
<path d="M420.682 195.341H403.488V225.478H420.682V195.341Z" fill="#EBEBEB"/>
<path d="M357.985 195.341H340.792V225.478H357.985V195.341Z" fill="#EBEBEB"/>
<path d="M389.34 195.341H372.146V225.478H389.34V195.341Z" fill="#EBEBEB"/>
<path d="M326.643 242.915H309.449V273.051H326.643V242.915Z" fill="#EBEBEB"/>
<path d="M420.682 242.915H403.488V273.051H420.682V242.915Z" fill="#EBEBEB"/>
<path d="M357.985 242.915H340.792V273.051H357.985V242.915Z" fill="#EBEBEB"/>
<path d="M389.34 242.915H372.146V273.051H389.34V242.915Z" fill="#EBEBEB"/>
<path d="M326.643 290.488H309.449V320.625H326.643V290.488Z" fill="#EBEBEB"/>
<path d="M420.682 290.488H403.488V320.625H420.682V290.488Z" fill="#EBEBEB"/>
<path d="M357.985 290.488H340.792V320.625H357.985V290.488Z" fill="#EBEBEB"/>
<path d="M389.34 290.488H372.146V320.625H389.34V290.488Z" fill="#EBEBEB"/>
<path d="M298.369 182.52H224.89V359.249H298.369V182.52Z" fill="#E6E6E6"/>
<path d="M464.239 201.442H431.774V359.24H464.239V201.442Z" fill="#E6E6E6"/>
<path d="M110.23 359.24H45.9211V285.459L110.23 268.332V359.24Z" fill="#E6E6E6"/>
<path d="M298.5 401.906C426.357 401.906 530.005 395.219 530.005 386.97C530.005 378.721 426.357 372.033 298.5 372.033C170.644 372.033 66.9954 378.721 66.9954 386.97C66.9954 395.219 170.644 401.906 298.5 401.906Z" fill="#F5F5F5"/>
<path d="M355.43 327.985H335.132C324.565 327.985 316.028 340.045 316.028 354.925C316.028 369.805 324.589 381.856 335.132 381.856H355.43C365.997 381.856 374.534 369.796 374.534 354.925C374.534 340.054 365.997 327.985 355.43 327.985Z" fill="#263238"/>
<path opacity="0.05" d="M379.31 327.985H359.012C348.445 327.985 339.908 340.045 339.908 354.925C339.908 369.805 348.469 381.856 359.012 381.856H379.31C389.877 381.856 398.414 369.796 398.414 354.925C398.414 340.054 389.877 327.985 379.31 327.985Z" fill="white"/>
<path d="M519.856 333.756L164.414 333.559V154.818H519.856V333.756Z" fill="#407BFF"/>
<path opacity="0.3" d="M519.856 154.818H278.954V333.747H519.856V154.818Z" fill="#263238"/>
<path opacity="0.2" d="M278.954 154.818H164.414V337.281H278.954V154.818Z" fill="white"/>
<path opacity="0.1" d="M165.274 163.128H519.856" stroke="white" stroke-width="2" stroke-linecap="round" stroke-linejoin="round"/>
<path opacity="0.1" d="M165.274 170.864H519.856" stroke="white" stroke-width="2" stroke-linecap="round" stroke-linejoin="round"/>
<path opacity="0.1" d="M165.274 178.591H519.856" stroke="white" stroke-width="2" stroke-linecap="round" stroke-linejoin="round"/>
<path opacity="0.1" d="M165.274 186.317H519.856" stroke="white" stroke-width="2" stroke-linecap="round" stroke-linejoin="round"/>
<path opacity="0.1" d="M165.274 194.054H519.856" stroke="white" stroke-width="2" stroke-linecap="round" stroke-linejoin="round"/>
<path opacity="0.1" d="M165.274 201.78H519.856" stroke="white" stroke-width="2" stroke-linecap="round" stroke-linejoin="round"/>
<path opacity="0.1" d="M165.274 209.507H519.856" stroke="white" stroke-width="2" stroke-linecap="round" stroke-linejoin="round"/>
<path opacity="0.1" d="M165.274 217.234H519.856" stroke="white" stroke-width="2" stroke-linecap="round" stroke-linejoin="round"/>
<path opacity="0.1" d="M165.274 224.97H519.856" stroke="white" stroke-width="2" stroke-linecap="round" stroke-linejoin="round"/>
<path opacity="0.1" d="M165.274 232.697H519.856" stroke="white" stroke-width="2" stroke-linecap="round" stroke-linejoin="round"/>
<path opacity="0.1" d="M165.274 240.424H519.856" stroke="white" stroke-width="2" stroke-linecap="round" stroke-linejoin="round"/>
<path opacity="0.1" d="M165.274 248.16H519.856" stroke="white" stroke-width="2" stroke-linecap="round" stroke-linejoin="round"/>
<path opacity="0.1" d="M165.274 255.887H519.856" stroke="white" stroke-width="2" stroke-linecap="round" stroke-linejoin="round"/>
<path opacity="0.1" d="M165.274 263.614H519.856" stroke="white" stroke-width="2" stroke-linecap="round" stroke-linejoin="round"/>
<path opacity="0.1" d="M165.274 271.34H519.856" stroke="white" stroke-width="2" stroke-linecap="round" stroke-linejoin="round"/>
<path opacity="0.1" d="M165.274 279.077H519.856" stroke="white" stroke-width="2" stroke-linecap="round" stroke-linejoin="round"/>
<path opacity="0.1" d="M165.274 286.803H519.856" stroke="white" stroke-width="2" stroke-linecap="round" stroke-linejoin="round"/>
<path opacity="0.1" d="M165.274 294.53H519.856" stroke="white" stroke-width="2" stroke-linecap="round" stroke-linejoin="round"/>
<path opacity="0.1" d="M165.274 302.266H519.856" stroke="white" stroke-width="2" stroke-linecap="round" stroke-linejoin="round"/>
<path opacity="0.1" d="M165.274 309.993H519.856" stroke="white" stroke-width="2" stroke-linecap="round" stroke-linejoin="round"/>
<path opacity="0.1" d="M165.274 317.72H519.856" stroke="white" stroke-width="2" stroke-linecap="round" stroke-linejoin="round"/>
<path opacity="0.1" d="M165.274 325.456H519.856" stroke="white" stroke-width="2" stroke-linecap="round" stroke-linejoin="round"/>
<path d="M99.1856 331.5H80.404C70.6132 331.5 62.6851 342.668 62.6851 356.448C62.6851 370.228 70.6132 381.386 80.404 381.386H99.1856C108.976 381.386 116.905 370.219 116.905 356.448C116.905 342.677 108.976 331.5 99.1856 331.5Z" fill="#263238"/>
<path opacity="0.05" d="M123.078 331.5H104.284C94.4933 331.5 86.5652 342.668 86.5652 356.448C86.5652 370.228 94.4933 381.386 104.284 381.386H123.078C132.857 381.386 140.797 370.219 140.797 356.448C140.797 342.677 132.857 331.5 123.078 331.5Z" fill="white"/>
<path d="M88.7381 282.78H79.8547C78.1115 282.827 76.6787 281.361 76.6429 279.5C76.619 279.306 76.619 279.111 76.6429 278.917L79.0309 257.795C79.3294 255.624 81.0368 254.035 83.0905 253.932H92.0574C93.7887 253.932 95.2215 255.37 95.2573 257.231C95.2573 257.419 95.2573 257.607 95.2573 257.795L92.8693 278.917C92.5111 281.06 90.744 282.724 88.7381 282.78Z" fill="#263238"/>
<path d="M97.6214 213.013L80.4875 285.76L267.026 343.288L265.725 199.919L224.699 198.979H112.32C105.562 198.932 99.6035 204.647 97.6214 213.013Z" fill="#407BFF"/>
<path d="M236.412 224.716C229.451 224.472 223.206 228.965 221.165 235.667L207.052 282.216H179.888L178.407 343.626H267.755" fill="#407BFF"/>
<path d="M100.296 278.306C97.5619 278.306 95.353 275.542 95.353 272.139C95.3518 271.546 95.4238 270.954 95.568 270.372L105.824 227.659C106.684 224.115 109.311 221.69 112.284 221.699H210.407C211.47 221.699 212.341 222.771 212.341 224.105C212.343 224.342 212.316 224.578 212.258 224.81C210.108 233.609 203.123 262.758 200.449 273.907C199.828 276.52 197.894 278.306 195.673 278.306H100.296Z" fill="#263238"/>
<path d="M190.586 297.237C190.584 297.986 190.517 298.733 190.383 299.475L189.87 302.229L189.571 303.855L187.374 315.737L183.792 335.054L182.801 340.421H43.9512V335.054L44.0467 315.737L44.178 304.184V299.484C42.984 293.28 46.7929 287.264 52.5957 286.014C53.2766 285.867 53.9795 285.795 54.6852 285.798H179.888C185.798 285.76 190.586 290.911 190.586 297.237Z" fill="#407BFF"/>
<path d="M261.164 227.48V273.267C261.164 276.04 259.361 278.296 257.128 278.306H223.194C220.962 278.306 219.159 276.05 219.159 273.267C219.158 272.814 219.206 272.361 219.302 271.914L229.761 225.102C230.263 222.855 231.934 221.342 233.797 221.426L257.271 222.442C259.444 222.545 261.164 224.773 261.164 227.48Z" fill="#263238"/>
<path opacity="0.1" d="M157.537 221.699H138.791L117.263 278.306H136.021L157.537 221.699Z" fill="white"/>
<path opacity="0.1" d="M172.127 221.699H163.172L141.656 278.306H150.599L172.127 221.699Z" fill="white"/>
<path d="M226.562 315.737V335.054H43.9751L44.0706 315.737H226.562Z" fill="black"/>
<path d="M201.129 315.737H184.246L153.883 329.78V335.054H226.562V315.737H201.129Z" fill="white"/>
<path d="M75.4489 329.78V335.054H43.9751L44.0706 315.737H45.0975L75.4489 329.78Z" fill="white"/>
<path opacity="0.3" d="M267.11 343.626L265.725 199.919L240.651 198.979C234.394 198.735 227.17 204.459 225.344 211.096L207.171 285.76H200.091C192.139 285.76 186.694 290.319 186.706 295.16L186.813 343.645H267.11" fill="#263238"/>
<path d="M190.121 302.906C190.118 303.084 190.068 303.26 189.973 303.422C189.879 303.584 189.742 303.728 189.571 303.846C189.279 304.059 188.895 304.177 188.497 304.175H44.178V301.618H188.533C188.807 301.618 189.078 301.674 189.318 301.779C189.558 301.884 189.76 302.036 189.906 302.219C190.057 302.428 190.131 302.666 190.121 302.906Z" fill="white"/>
<path d="M69.6342 301.627V304.184H44.1304L44.1423 301.627H69.6342Z" fill="#263238"/>
<path d="M190.121 302.906C190.118 303.084 190.068 303.26 189.973 303.422C189.879 303.584 189.742 303.728 189.571 303.846C189.28 304.059 188.895 304.177 188.497 304.175H153.489V301.618H188.497C188.772 301.618 189.042 301.674 189.282 301.779C189.522 301.884 189.724 302.036 189.87 302.219C190.033 302.425 190.12 302.663 190.121 302.906Z" fill="#263238"/>
<path d="M526.232 338.4V338.908C526.232 340.154 525.603 341.35 524.483 342.231C523.364 343.112 521.845 343.608 520.262 343.608H46.0049C44.4216 343.608 42.9031 343.112 41.7835 342.231C40.6639 341.35 40.0349 340.154 40.0349 338.908V338.4C40.0349 337.153 40.6639 335.958 41.7835 335.077C42.9031 334.195 44.4216 333.7 46.0049 333.7H520.262C521.845 333.7 523.364 334.195 524.483 335.077C525.603 335.958 526.232 337.153 526.232 338.4Z" fill="#263238"/>
<path d="M151.172 337.563H80.4875V340.28H151.172V337.563Z" fill="black"/>
<path d="M61.6821 338.917C61.6821 339.223 61.5669 339.523 61.3509 339.778C61.135 340.033 60.828 340.231 60.4687 340.349C60.1094 340.467 59.7139 340.498 59.3321 340.439C58.9502 340.38 58.5992 340.233 58.3232 340.017C58.0472 339.801 57.8586 339.526 57.7813 339.225C57.7039 338.925 57.7412 338.614 57.8885 338.33C58.0358 338.046 58.2864 337.803 58.6088 337.632C58.9313 337.46 59.311 337.368 59.7001 337.366C59.9598 337.365 60.2173 337.404 60.4577 337.481C60.6981 337.559 60.9167 337.673 61.1009 337.817C61.2851 337.961 61.4313 338.132 61.531 338.321C61.6308 338.51 61.6821 338.713 61.6821 338.917Z" fill="white"/>
<path d="M168.056 338.917C168.056 339.224 167.94 339.524 167.724 339.779C167.507 340.034 167.199 340.233 166.84 340.35C166.48 340.467 166.083 340.498 165.701 340.438C165.319 340.378 164.968 340.231 164.693 340.014C164.417 339.797 164.229 339.52 164.153 339.22C164.077 338.919 164.116 338.607 164.265 338.323C164.415 338.04 164.667 337.798 164.991 337.627C165.315 337.457 165.696 337.366 166.086 337.366C166.344 337.366 166.6 337.406 166.84 337.484C167.079 337.562 167.296 337.676 167.479 337.82C167.662 337.964 167.807 338.135 167.906 338.323C168.005 338.512 168.056 338.713 168.056 338.917Z" fill="white"/>
<path d="M225.176 354.314C225.176 339.359 233.785 327.233 244.412 327.233H224.006C213.392 327.233 204.783 339.359 204.783 354.314C204.783 369.27 213.392 381.386 224.006 381.386H244.412C233.785 381.414 225.176 369.298 225.176 354.314Z" fill="black"/>
<path opacity="0.7" d="M225.176 354.314C225.176 339.359 233.785 327.233 244.412 327.233H224.006C213.392 327.233 204.783 339.359 204.783 354.314C204.783 369.27 213.392 381.386 224.006 381.386H244.412C233.785 381.414 225.176 369.298 225.176 354.314Z" fill="#263238"/>
<path d="M244.412 381.424C255.035 381.424 263.647 369.299 263.647 354.342C263.647 339.386 255.035 327.261 244.412 327.261C233.788 327.261 225.177 339.386 225.177 354.342C225.177 369.299 233.788 381.424 244.412 381.424Z" fill="#263238"/>
<path d="M245.952 375.455C253.483 375.455 259.588 366.002 259.588 354.342C259.588 342.682 253.483 333.23 245.952 333.23C238.421 333.23 232.317 342.682 232.317 354.342C232.317 366.002 238.421 375.455 245.952 375.455Z" fill="white"/>
<path d="M244.71 372.616C251.918 372.616 257.761 364.435 257.761 354.342C257.761 344.25 251.918 336.069 244.71 336.069C237.503 336.069 231.66 344.25 231.66 354.342C231.66 364.435 237.503 372.616 244.71 372.616Z" fill="#263238"/>
<path d="M241.845 367.681C247.107 367.681 251.373 361.709 251.373 354.342C251.373 346.976 247.107 341.004 241.845 341.004C236.583 341.004 232.317 346.976 232.317 354.342C232.317 361.709 236.583 367.681 241.845 367.681Z" fill="black"/>
<path opacity="0.5" d="M526.232 338.4V338.908C526.232 340.154 525.603 341.35 524.483 342.231C523.364 343.112 521.845 343.608 520.262 343.608H278.954V333.7H520.262C521.845 333.7 523.364 334.195 524.483 335.077C525.603 335.958 526.232 337.153 526.232 338.4Z" fill="black"/>
<path d="M451.237 354.314C451.237 339.359 459.845 327.233 470.46 327.233H450.066C439.44 327.233 430.831 339.359 430.831 354.314C430.831 369.27 439.44 381.386 450.066 381.386H470.436C459.845 381.414 451.237 369.298 451.237 354.314Z" fill="black"/>
<path opacity="0.7" d="M451.237 354.314C451.237 339.359 459.845 327.233 470.46 327.233H450.066C439.44 327.233 430.831 339.359 430.831 354.314C430.831 369.27 439.44 381.386 450.066 381.386H470.436C459.845 381.414 451.237 369.298 451.237 354.314Z" fill="#263238"/>
<path d="M470.46 381.424C481.083 381.424 489.695 369.299 489.695 354.342C489.695 339.386 481.083 327.261 470.46 327.261C459.837 327.261 451.225 339.386 451.225 354.342C451.225 369.299 459.837 381.424 470.46 381.424Z" fill="#263238"/>
<path d="M472.012 375.455C479.543 375.455 485.648 366.002 485.648 354.342C485.648 342.682 479.543 333.23 472.012 333.23C464.482 333.23 458.377 342.682 458.377 354.342C458.377 366.002 464.482 375.455 472.012 375.455Z" fill="white"/>
<path d="M470.758 372.616C477.966 372.616 483.809 364.435 483.809 354.342C483.809 344.25 477.966 336.069 470.758 336.069C463.551 336.069 457.708 344.25 457.708 354.342C457.708 364.435 463.551 372.616 470.758 372.616Z" fill="#263238"/>
<path d="M467.893 367.681C473.155 367.681 477.421 361.709 477.421 354.342C477.421 346.976 473.155 341.004 467.893 341.004C462.631 341.004 458.365 346.976 458.365 354.342C458.365 361.709 462.631 367.681 467.893 367.681Z" fill="black"/>
<path d="M227.919 226.376C227.68 229.995 227.262 233.492 226.582 237.054C225.993 240.734 224.97 244.363 223.525 247.893C223.069 248.921 222.498 249.915 221.817 250.863C221.344 251.502 220.766 252.09 220.098 252.611L219.764 252.856L219.573 252.969L219.477 253.034L219.071 253.251L218.271 253.692C216.243 254.717 214.111 255.607 211.895 256.353C207.691 257.807 203.321 258.947 198.845 259.755L197.293 256.409C201.09 254.755 204.982 253.063 208.528 251.305C210.262 250.468 211.928 249.548 213.519 248.551L214.045 248.203L214.307 248.024C214.307 248.024 214.415 247.883 214.546 247.658C214.895 247.05 215.182 246.421 215.406 245.778C215.945 244.231 216.372 242.662 216.683 241.078C217.053 239.442 217.352 237.778 217.603 236.086C218.092 232.73 218.51 229.29 218.797 225.944L227.919 226.376Z" fill="#CE7A63"/>
<path d="M200.122 256.456L192.791 254.67L194.164 261.654C194.164 261.654 198.94 261.184 201.328 259.079L200.122 256.456Z" fill="#CE7A63"/>
<path d="M183.908 259.163L184.314 260.103C184.543 260.622 184.98 261.069 185.559 261.376C186.139 261.682 186.829 261.833 187.526 261.805L191.263 261.673L189.878 254.67L185.771 255.939C184.991 256.183 184.362 256.655 184.015 257.256C183.668 257.857 183.63 258.54 183.908 259.163Z" fill="#CE7A63"/>
<path d="M236.587 219.599C236.587 221.779 235.25 226.085 234.104 229.318C233.256 231.64 232.551 233.407 232.551 233.407L230.868 233.078L216.994 230.315C216.779 224.675 217.053 218.536 224.158 214.852C228.599 212.539 236.551 215.716 236.587 219.599Z" fill="#263238"/>
<path opacity="0.3" d="M236.575 219.975C235.668 219.223 233.614 219.091 229.137 220.21C222.725 221.808 220.934 227.335 220.85 231.085L230.868 233.078L231.728 233.257L232.552 233.407C232.552 233.407 232.898 232.524 233.399 231.179C233.602 230.634 233.853 229.995 234.092 229.299C235.287 226.259 236.118 223.137 236.575 219.975Z" fill="black"/>
<path d="M208.11 395.078L199.645 392.747L204.97 378.308L213.424 380.649L208.11 395.078Z" fill="#CE7A63"/>
<path d="M321.218 377.97L314.328 382.012L300.227 370.76L307.117 366.718L321.218 377.97Z" fill="#CE7A63"/>
<path d="M311.511 380.367L318.949 375.526C319.075 375.44 319.236 375.392 319.403 375.392C319.57 375.392 319.731 375.44 319.857 375.526L325.564 379.605C325.692 379.706 325.794 379.825 325.863 379.957C325.933 380.088 325.968 380.229 325.968 380.371C325.968 380.514 325.933 380.655 325.863 380.786C325.794 380.918 325.692 381.037 325.564 381.138L325.445 381.222C322.818 382.877 321.433 383.572 318.161 385.697C316.155 387.003 311.94 390.133 309.158 391.938C306.376 393.743 303.965 391.684 304.92 390.735C309.182 386.486 310.173 383.685 310.675 381.391C310.795 380.984 311.09 380.622 311.511 380.367Z" fill="#263238"/>
<path d="M199.072 390.66L208.48 393.752C208.648 393.81 208.788 393.909 208.878 394.034C208.968 394.16 209.005 394.305 208.982 394.448L207.919 400.981C207.877 401.242 207.706 401.48 207.442 401.642C207.177 401.805 206.843 401.878 206.51 401.846C206.387 401.835 206.266 401.81 206.152 401.771C202.821 400.708 201.257 400.182 197.125 398.819L184.445 394.636C181.006 393.499 181.747 390.528 183.251 390.744C190.212 391.741 194.702 391.412 197.448 390.594C197.711 390.52 197.989 390.488 198.268 390.499C198.547 390.51 198.82 390.565 199.072 390.66Z" fill="#263238"/>
<path opacity="0.2" d="M204.97 378.318L202.236 385.753L210.474 388.686L213.436 380.649L204.97 378.318Z" fill="black"/>
<path opacity="0.2" d="M307.129 366.718L300.227 370.76L307.499 376.56L314.388 372.518L307.129 366.718Z" fill="black"/>
<path d="M262.616 254.886L227.752 255.281C222.976 234.028 221.782 223.885 221.782 219.006C221.775 217.79 222.309 216.609 223.29 215.669C224.27 214.729 225.637 214.087 227.155 213.855C229.28 213.526 231.931 213.15 234.593 212.859C235.501 212.765 236.42 212.671 237.327 212.596C242.593 212.24 247.884 212.18 253.16 212.417C253.948 212.417 254.724 212.473 255.548 212.511C259.13 212.69 262.401 213.047 264.73 213.329C265.567 213.435 266.317 213.799 266.814 214.34C267.311 214.881 267.515 215.555 267.38 216.215C267.386 216.261 267.386 216.309 267.38 216.356C266.354 220.116 265.518 223.453 264.849 226.423C263.786 231.123 263.118 234.958 262.724 238.305C262.127 243.821 262.091 249.365 262.616 254.886Z" fill="#263238"/>
<path opacity="0.1" d="M262.712 238.333C260.957 234.187 261.052 225.586 262.939 222.804L264.861 226.442C263.775 231.17 263.106 234.986 262.712 238.333Z" fill="black"/>
<path d="M227.752 255.281C227.752 255.281 221.782 295.24 216.397 320.141C212.134 339.637 201.364 380.216 201.364 380.216L215.346 384.117C215.346 384.117 231.358 341.817 234.163 323.751C245.447 297.703 253.566 255.084 253.566 255.084L227.752 255.281Z" fill="#407BFF"/>
<path d="M199.096 382.942L215.274 387.426L217.436 383.337L199.884 378.054L199.096 382.942Z" fill="#263238"/>
<path opacity="0.1" d="M245.423 267.153L240.193 275.04C238.283 280.981 238.736 295.438 241.16 304.575C245.506 290.804 248.981 276.309 251.142 266.58L245.423 267.153Z" fill="black"/>
<path d="M235.322 255.281C235.322 255.281 241.566 300.006 253.232 324.841C259.082 337.296 302.484 374.219 302.484 374.219L312.275 368.053C312.275 368.053 284.753 330.801 272.718 321.053C267.81 299.433 273.983 267.022 262.581 254.896L235.322 255.281Z" fill="#407BFF"/>
<path d="M303.308 376.861L314.794 369.453L311.69 365.44L299.117 374.059L303.308 376.861Z" fill="#263238"/>
<path d="M263.166 253.279L264.778 255.713C264.897 255.901 264.622 256.108 264.216 256.108L227.632 256.522C227.31 256.522 227.059 256.399 227.023 256.249L226.677 253.796C226.677 253.627 226.928 253.476 227.262 253.476L262.581 253.072C262.692 253.067 262.803 253.083 262.905 253.119C263.007 253.155 263.097 253.21 263.166 253.279Z" fill="#263238"/>
<path d="M258.425 256.456H259.393C259.572 256.456 259.715 256.371 259.703 256.287L259.19 253.091C259.19 252.997 259.022 252.931 258.831 252.931H257.936C257.745 252.931 257.602 253.016 257.625 253.1L258.127 256.287C258.067 256.362 258.246 256.456 258.425 256.456Z" fill="#407BFF"/>
<path d="M230.259 256.757H231.214C231.405 256.757 231.537 256.672 231.525 256.578L231.035 253.392C231.035 253.298 230.844 253.222 230.653 253.222H229.698C229.507 253.222 229.364 253.307 229.375 253.401L229.877 256.588C229.901 256.682 230.068 256.757 230.259 256.757Z" fill="#407BFF"/>
<path d="M244.348 256.578H245.303C245.494 256.578 245.638 256.494 245.626 256.4L245.124 253.213C245.124 253.109 244.945 253.034 244.754 253.044H243.799C243.608 253.044 243.477 253.128 243.477 253.222L243.978 256.409C243.966 256.522 244.157 256.578 244.348 256.578Z" fill="#407BFF"/>
<path d="M181.09 227.147L232.838 221.554L240.002 261.551L189.185 267.04L181.09 227.147Z" fill="#407BFF"/>
<path opacity="0.8" d="M181.09 227.147L232.838 221.554L240.002 261.551L189.185 267.04L181.09 227.147Z" fill="white"/>
<path opacity="0.2" d="M233.548 219.622L219.73 221.161L227.142 262.424L240.96 260.885L233.548 219.622Z" fill="#407BFF"/>
<path d="M247.512 256.512L240.348 254.303L241.053 261.353C241.053 261.353 245.829 261.165 248.396 259.201L247.512 256.512Z" fill="#CE7A63"/>
<path d="M270.043 221.413C271.965 225.643 273.625 229.873 275.034 234.197C275.75 236.368 276.419 238.549 276.956 240.777C277.219 241.905 277.446 243.052 277.613 244.245C277.805 245.493 277.873 246.75 277.816 248.005C277.782 248.823 277.622 249.634 277.338 250.421C276.946 251.389 276.29 252.278 275.416 253.025C274.139 254.102 272.621 254.984 270.939 255.629C268.183 256.681 265.282 257.479 262.294 258.007C256.707 259.027 251.01 259.628 245.279 259.802L244.718 256.259C247.333 255.77 250.008 255.224 252.611 254.651C255.214 254.078 257.805 253.439 260.288 252.724C262.66 252.082 264.947 251.261 267.118 250.271C267.906 249.908 268.609 249.44 269.195 248.889C269.35 248.701 269.35 248.654 269.327 248.654C269.35 248.375 269.35 248.096 269.327 247.817C269.281 246.906 269.158 245.999 268.956 245.101C268.765 244.161 268.503 243.108 268.216 242.074C267.619 240.062 266.951 238.004 266.198 235.945C264.706 231.866 263.022 227.72 261.339 223.725L270.043 221.413Z" fill="#CE7A63"/>
<path d="M233.745 257.781L234.307 259.417C234.475 259.942 234.856 260.41 235.393 260.749C235.929 261.088 236.592 261.281 237.28 261.297L241.124 261.382L240.42 254.341L236.504 254.689C236.088 254.722 235.684 254.819 235.316 254.975C234.948 255.13 234.623 255.342 234.359 255.597C234.095 255.852 233.898 256.145 233.778 256.46C233.658 256.776 233.619 257.106 233.662 257.434C233.679 257.551 233.707 257.667 233.745 257.781Z" fill="#CE7A63"/>
<path d="M265.972 213.536C269.983 214.823 273.267 225.201 273.267 225.201L262.187 232.016C262.187 232.016 254.33 222.334 255.93 218.132C257.291 214.579 260.861 211.909 265.972 213.536Z" fill="#263238"/>
<path d="M308.8 383.3H308.657C308.457 383.289 308.263 383.238 308.094 383.153C307.925 383.067 307.786 382.95 307.69 382.811C307.619 382.731 307.576 382.637 307.565 382.54C307.555 382.442 307.577 382.344 307.63 382.256C308.12 381.504 311.212 381.203 311.547 381.175C311.586 381.169 311.627 381.173 311.664 381.187C311.7 381.2 311.73 381.223 311.75 381.25C311.772 381.277 311.784 381.308 311.784 381.34C311.784 381.371 311.772 381.403 311.75 381.429C311.105 382.115 309.851 383.243 308.8 383.3ZM311.129 381.542C309.935 381.683 308.251 381.993 308.012 382.406C307.983 382.441 307.968 382.482 307.968 382.524C307.968 382.566 307.983 382.606 308.012 382.641C308.069 382.738 308.157 382.82 308.269 382.88C308.38 382.94 308.51 382.974 308.645 382.98C309.242 382.98 310.197 382.472 311.153 381.542H311.129Z" fill="#263238"/>
<path d="M311.403 381.476C310.364 381.476 308.287 381.184 307.821 380.536C307.747 380.423 307.723 380.294 307.754 380.17C307.784 380.045 307.867 379.933 307.988 379.85C308.094 379.759 308.223 379.687 308.368 379.64C308.512 379.593 308.668 379.571 308.824 379.577C310.078 379.577 311.666 381.09 311.714 381.175C311.732 381.198 311.741 381.224 311.741 381.25C311.741 381.277 311.732 381.303 311.714 381.325C311.704 381.353 311.684 381.378 311.656 381.396C311.629 381.415 311.595 381.426 311.558 381.429L311.403 381.476ZM308.752 379.915C308.584 379.928 308.427 379.988 308.311 380.085C308.132 380.235 308.167 380.329 308.215 380.404C308.49 380.818 310.126 381.156 311.176 381.156C310.578 380.565 309.766 380.129 308.848 379.906L308.752 379.915Z" fill="#263238"/>
<path d="M194.26 390.509C193.596 390.339 193.016 390.01 192.6 389.569C192.506 389.439 192.448 389.295 192.432 389.145C192.415 388.996 192.44 388.846 192.505 388.705C192.537 388.623 192.596 388.55 192.676 388.493C192.756 388.435 192.853 388.394 192.958 388.376C194.057 388.216 196.648 390.406 197.149 390.848C197.173 390.876 197.186 390.908 197.186 390.942C197.186 390.975 197.173 391.008 197.149 391.036C197.129 391.065 197.097 391.089 197.058 391.102C197.019 391.116 196.976 391.119 196.935 391.111C196.019 390.982 195.123 390.781 194.26 390.509ZM193.436 388.742C193.314 388.696 193.177 388.676 193.042 388.686C193.042 388.686 192.935 388.686 192.887 388.799C192.839 388.896 192.82 389.002 192.833 389.106C192.845 389.21 192.888 389.311 192.958 389.4C193.329 389.908 194.606 390.387 196.421 390.697C195.569 389.928 194.57 389.268 193.46 388.742H193.436Z" fill="#263238"/>
<path d="M196.923 391.092H196.851C195.979 390.406 194.558 388.347 195.048 387.689C195.155 387.548 195.382 387.398 195.896 387.511C197.818 387.953 197.233 390.885 197.197 391.008C197.197 391.038 197.183 391.068 197.156 391.091C197.129 391.113 197.093 391.127 197.054 391.13C197.03 391.134 197.005 391.132 196.981 391.126C196.958 391.119 196.938 391.107 196.923 391.092ZM195.967 387.812H195.848C195.657 387.765 195.514 387.812 195.466 387.812C195.179 388.197 196.099 389.748 196.935 390.575C196.923 389.851 197.042 388.188 195.967 387.812Z" fill="#263238"/>
<path d="M232.957 184.292C232.957 184.292 228.181 190.581 231.763 193.335C235.345 196.089 236.396 186.323 236.396 186.323L232.957 184.292Z" fill="#263238"/>
<path d="M255.142 199.05C255.142 199.05 261.112 191.699 258.628 184.396C256.145 177.092 244.539 181.811 239.644 179.808C237.85 178.95 235.94 178.253 233.949 177.731C233.628 177.656 233.291 177.64 232.962 177.684C232.633 177.728 232.321 177.831 232.05 177.985C230.856 178.812 232.934 180.363 233.578 180.946C233.182 180.585 232.724 180.268 232.217 180.006C231.584 179.677 230.737 179.649 231.023 180.485C231.514 181.384 232.394 182.117 233.507 182.553C233.041 182.346 230.283 181.247 230.092 181.933C230.068 182.099 230.123 182.267 230.247 182.403C232.038 185.035 235.644 188.344 239.799 188.409C244.802 188.466 249.578 199.548 255.142 199.05Z" fill="#263238"/>
<path d="M257.255 199.379C256.945 201.861 252.264 201.889 252.264 201.889C251.498 203.309 250.225 204.524 248.599 205.386C248.455 206.884 248.519 208.391 248.79 209.879C249.578 212.22 250.581 213.028 251.835 213.554L250.832 214.335C248.912 215.206 246.743 215.682 244.527 215.716L243.214 215.115L241.495 215.331C236.719 214.1 237.913 211.571 237.913 211.571C238.784 209.854 238.83 207.946 238.044 206.204C233.459 205.076 231.584 201.936 230.94 196.653C230.295 191.37 234.068 186.313 234.068 186.313C239.25 190.252 249.518 187.723 249.518 187.723C249.076 195.13 253.47 197.866 253.47 197.866C254.915 196.851 257.554 196.907 257.255 199.379Z" fill="#CE7A63"/>
<path d="M240.587 200.056C241.819 199.784 242.884 199.17 243.584 198.326C243.641 198.26 243.662 198.179 243.644 198.1C243.627 198.021 243.571 197.95 243.488 197.903C243.448 197.88 243.402 197.863 243.352 197.853C243.303 197.843 243.252 197.842 243.202 197.848C243.152 197.854 243.104 197.868 243.061 197.889C243.018 197.909 242.981 197.937 242.951 197.969C242.548 198.539 241.924 198.993 241.17 199.264C240.416 199.534 239.571 199.608 238.76 199.473C238.664 199.45 238.559 199.457 238.47 199.494C238.38 199.531 238.313 199.595 238.283 199.671C238.252 199.748 238.262 199.831 238.308 199.903C238.355 199.975 238.436 200.03 238.533 200.056C239.207 200.194 239.914 200.194 240.587 200.056Z" fill="#263238"/>
<path d="M241.948 193.589C241.948 194.068 241.709 194.482 241.303 194.529C240.898 194.576 240.527 194.181 240.48 193.702C240.432 193.222 240.73 192.762 241.136 192.762C241.542 192.762 241.9 193.1 241.948 193.589Z" fill="#263238"/>
<path d="M234.641 193.344C234.641 193.824 234.402 194.237 233.996 194.284C233.59 194.331 233.232 193.937 233.184 193.457C233.136 192.978 233.423 192.564 233.829 192.517C234.235 192.47 234.605 192.856 234.641 193.344Z" fill="#263238"/>
<path d="M236.575 197.997L236.492 194.519L234.295 197.452C234.598 197.672 234.961 197.835 235.356 197.93C235.751 198.024 236.167 198.047 236.575 197.997Z" fill="#BA4D3C"/>
<path d="M245.28 190.656C245.332 190.645 245.38 190.626 245.423 190.6C245.481 190.573 245.532 190.537 245.572 190.494C245.612 190.451 245.641 190.402 245.657 190.35C245.672 190.298 245.674 190.245 245.663 190.192C245.652 190.14 245.627 190.09 245.59 190.045C245.192 189.52 244.616 189.094 243.925 188.815C243.235 188.536 242.459 188.415 241.686 188.466C241.618 188.471 241.553 188.488 241.494 188.514C241.436 188.54 241.384 188.575 241.343 188.617C241.301 188.659 241.271 188.708 241.254 188.759C241.237 188.811 241.234 188.864 241.244 188.917C241.262 189.023 241.332 189.119 241.439 189.184C241.547 189.249 241.682 189.278 241.817 189.265C242.394 189.236 242.97 189.334 243.482 189.546C243.994 189.758 244.422 190.077 244.718 190.468C244.774 190.542 244.859 190.601 244.96 190.635C245.061 190.668 245.173 190.676 245.28 190.656Z" fill="#263238"/>
<path d="M232.325 190.271C232.459 190.243 232.574 190.176 232.647 190.083C232.861 189.828 233.165 189.627 233.521 189.505C233.877 189.383 234.27 189.346 234.653 189.396C234.719 189.407 234.787 189.407 234.853 189.397C234.919 189.387 234.982 189.366 235.038 189.336C235.093 189.307 235.141 189.268 235.177 189.224C235.214 189.179 235.239 189.129 235.25 189.077C235.274 188.972 235.246 188.864 235.17 188.776C235.094 188.688 234.977 188.627 234.844 188.607C234.253 188.52 233.643 188.577 233.093 188.768C232.544 188.959 232.08 189.276 231.763 189.678C231.697 189.771 231.678 189.881 231.712 189.984C231.745 190.087 231.828 190.176 231.943 190.233C232.06 190.282 232.196 190.296 232.325 190.271Z" fill="#263238"/>
<path d="M253.781 213.883L251.214 215.857L246.641 219.392L244.921 217.239L243.214 215.115L249.184 209.512L253.53 213.648L253.781 213.883Z" fill="white"/>
<path d="M243.214 215.115L241.889 216.854L239.942 219.392L235.477 213.047L238.33 210.405L243.214 215.115Z" fill="white"/>
<g filter="url(#filter0_d_73_22)">
<path d="M358.994 228.273C356.992 228.273 355.198 227.948 353.612 227.298C352.026 226.648 350.752 225.686 349.79 224.412C348.854 223.138 348.36 221.604 348.308 219.81H355.406C355.51 220.824 355.861 221.604 356.459 222.15C357.057 222.67 357.837 222.93 358.799 222.93C359.787 222.93 360.567 222.709 361.139 222.267C361.711 221.799 361.997 221.162 361.997 220.356C361.997 219.68 361.763 219.121 361.295 218.679C360.853 218.237 360.294 217.873 359.618 217.587C358.968 217.301 358.032 216.976 356.81 216.612C355.042 216.066 353.599 215.52 352.481 214.974C351.363 214.428 350.401 213.622 349.595 212.556C348.789 211.49 348.386 210.099 348.386 208.383C348.386 205.835 349.309 203.846 351.155 202.416C353.001 200.96 355.406 200.232 358.37 200.232C361.386 200.232 363.817 200.96 365.663 202.416C367.509 203.846 368.497 205.848 368.627 208.422H361.412C361.36 207.538 361.035 206.849 360.437 206.355C359.839 205.835 359.072 205.575 358.136 205.575C357.33 205.575 356.68 205.796 356.186 206.238C355.692 206.654 355.445 207.265 355.445 208.071C355.445 208.955 355.861 209.644 356.693 210.138C357.525 210.632 358.825 211.165 360.593 211.737C362.361 212.335 363.791 212.907 364.883 213.453C366.001 213.999 366.963 214.792 367.769 215.832C368.575 216.872 368.978 218.211 368.978 219.849C368.978 221.409 368.575 222.826 367.769 224.1C366.989 225.374 365.845 226.388 364.337 227.142C362.829 227.896 361.048 228.273 358.994 228.273ZM379.751 205.965V211.503H388.682V216.651H379.751V222.657H389.852V228H373.082V200.622H389.852V205.965H379.751ZM411.342 200.622V219.264C411.342 222.15 410.523 224.373 408.885 225.933C407.273 227.493 405.089 228.273 402.333 228.273C399.447 228.273 397.133 227.454 395.391 225.816C393.649 224.178 392.778 221.851 392.778 218.835H399.408C399.408 219.979 399.642 220.85 400.11 221.448C400.578 222.02 401.254 222.306 402.138 222.306C402.944 222.306 403.568 222.046 404.01 221.526C404.452 221.006 404.673 220.252 404.673 219.264V200.622H411.342ZM433.772 223.164H423.554L421.916 228H414.935L424.841 200.622H432.563L442.469 228H435.41L433.772 223.164ZM432.056 218.016L428.663 207.993L425.309 218.016H432.056ZM301.222 272.96C302.808 273.298 304.082 274.091 305.044 275.339C306.006 276.561 306.487 277.965 306.487 279.551C306.487 281.839 305.681 283.659 304.069 285.011C302.483 286.337 300.26 287 297.4 287H284.647V259.622H296.971C299.753 259.622 301.924 260.259 303.484 261.533C305.07 262.807 305.863 264.536 305.863 266.72C305.863 268.332 305.434 269.671 304.576 270.737C303.744 271.803 302.626 272.544 301.222 272.96ZM291.316 270.698H295.684C296.776 270.698 297.608 270.464 298.18 269.996C298.778 269.502 299.077 268.787 299.077 267.851C299.077 266.915 298.778 266.2 298.18 265.706C297.608 265.212 296.776 264.965 295.684 264.965H291.316V270.698ZM296.23 281.618C297.348 281.618 298.206 281.371 298.804 280.877C299.428 280.357 299.74 279.616 299.74 278.654C299.74 277.692 299.415 276.938 298.765 276.392C298.141 275.846 297.27 275.573 296.152 275.573H291.316V281.618H296.23ZM317.024 264.965V270.503H325.955V275.651H317.024V281.657H327.125V287H310.355V259.622H327.125V264.965H317.024ZM362.459 259.622V287H355.79V270.581L349.667 287H344.285L338.123 270.542V287H331.454V259.622H339.332L347.015 278.576L354.62 259.622H362.459ZM384.025 270.542V276.08H366.865V270.542H384.025ZM415.579 259.622L405.868 287H397.522L387.811 259.622H394.909L401.695 280.292L408.52 259.622H415.579ZM425.035 259.622V287H418.366V259.622H425.035ZM454.36 287H447.691L436.537 270.113V287H429.868V259.622H436.537L447.691 276.587V259.622H454.36V287ZM469.451 259.622C472.337 259.622 474.859 260.194 477.017 261.338C479.175 262.482 480.839 264.094 482.009 266.174C483.205 268.228 483.803 270.607 483.803 273.311C483.803 275.989 483.205 278.368 482.009 280.448C480.839 282.528 479.162 284.14 476.978 285.284C474.82 286.428 472.311 287 469.451 287H459.194V259.622H469.451ZM469.022 281.228C471.544 281.228 473.507 280.539 474.911 279.161C476.315 277.783 477.017 275.833 477.017 273.311C477.017 270.789 476.315 268.826 474.911 267.422C473.507 266.018 471.544 265.316 469.022 265.316H465.863V281.228H469.022ZM500.478 287.273C497.904 287.273 495.538 286.675 493.38 285.479C491.248 284.283 489.545 282.619 488.271 280.487C487.023 278.329 486.399 275.911 486.399 273.233C486.399 270.555 487.023 268.15 488.271 266.018C489.545 263.886 491.248 262.222 493.38 261.026C495.538 259.83 497.904 259.232 500.478 259.232C503.052 259.232 505.405 259.83 507.537 261.026C509.695 262.222 511.385 263.886 512.607 266.018C513.855 268.15 514.479 270.555 514.479 273.233C514.479 275.911 513.855 278.329 512.607 280.487C511.359 282.619 509.669 284.283 507.537 285.479C505.405 286.675 503.052 287.273 500.478 287.273ZM500.478 281.189C502.662 281.189 504.404 280.461 505.704 279.005C507.03 277.549 507.693 275.625 507.693 273.233C507.693 270.815 507.03 268.891 505.704 267.461C504.404 266.005 502.662 265.277 500.478 265.277C498.268 265.277 496.5 265.992 495.174 267.422C493.874 268.852 493.224 270.789 493.224 273.233C493.224 275.651 493.874 277.588 495.174 279.044C496.5 280.474 498.268 281.189 500.478 281.189Z" fill="white"/>
</g>
<defs>
<filter id="filter0_d_73_22" x="280.646" y="200.232" width="237.833" height="95.041" filterUnits="userSpaceOnUse" color-interpolation-filters="sRGB">
<feFlood flood-opacity="0" result="BackgroundImageFix"/>
<feColorMatrix in="SourceAlpha" type="matrix" values="0 0 0 0 0 0 0 0 0 0 0 0 0 0 0 0 0 0 127 0" result="hardAlpha"/>
<feOffset dy="4"/>
<feGaussianBlur stdDeviation="2"/>
<feComposite in2="hardAlpha" operator="out"/>
<feColorMatrix type="matrix" values="0 0 0 0 0 0 0 0 0 0 0 0 0 0 0 0 0 0 0.25 0"/>
<feBlend mode="normal" in2="BackgroundImageFix" result="effect1_dropShadow_73_22"/>
<feBlend mode="normal" in="SourceGraphic" in2="effect1_dropShadow_73_22" result="shape"/>
</filter>
</defs>
</svg>
