<svg width="700" height="700" viewBox="0 0 700 700" fill="none" xmlns="http://www.w3.org/2000/svg">
<path d="M575.274 385.7L593.964 385.308L603.176 385.154C606.242 385.084 609.28 385.154 612.346 385.07L611.716 385.7L611.646 370.034L612.346 370.734L593.81 370.636C587.622 370.636 581.448 370.482 575.274 370.412L575.652 370.034C575.652 372.596 575.526 375.172 575.47 377.776L575.274 385.7ZM575.274 385.7L575.064 377.944C575.064 375.326 574.91 372.694 574.882 370.034V369.6H575.274C581.448 369.6 587.622 369.39 593.81 369.376L612.346 369.292H613.046V369.992L612.962 385.658V386.4H612.346C609.21 386.4 606.088 386.4 602.966 386.33L593.642 386.176L575.274 385.7Z" fill="#EBEBEB"/>
<path d="M595.952 405.454L614.642 405.062L623.854 404.908C626.92 404.838 629.972 404.908 633.024 404.824L632.394 405.454V389.788L633.094 390.488L614.558 390.39C608.37 390.39 602.196 390.236 596.022 390.166L596.4 389.788C596.4 392.35 596.274 394.926 596.218 397.53L595.952 405.454ZM595.952 405.454L595.756 397.698C595.686 395.08 595.588 392.448 595.56 389.788V389.41H595.952C602.126 389.34 608.3 389.2 614.488 389.186L633.024 389.102H633.724V389.802L633.64 405.468V406.098H633.024C629.902 406.098 626.766 406.098 623.644 406.028L614.32 405.874L595.952 405.454Z" fill="#EBEBEB"/>
<path d="M554.512 405.44H591.584V389.774H554.512V405.44Z" fill="#EBEBEB"/>
<path d="M66.976 513.59L85.68 513.198L94.892 513.044C97.944 513.044 100.996 513.044 104.048 512.96L103.432 513.59L103.348 497.924L104.048 498.624L85.512 498.526C79.338 498.526 73.164 498.372 66.976 498.302L67.354 497.924C67.354 500.486 67.242 503.062 67.172 505.666L66.976 513.59ZM66.976 513.59L66.78 505.834C66.71 503.216 66.626 500.584 66.598 497.924V497.546H66.976C73.164 497.476 79.338 497.336 85.512 497.322L104.048 497.238H104.748V497.938V513.604V514.234H104.118C100.996 514.234 97.86 514.234 94.752 514.164L85.4 513.982L66.976 513.59Z" fill="#EBEBEB"/>
<path d="M87.668 533.33H124.74V517.664H87.668V533.33Z" fill="#EBEBEB"/>
<path d="M163.03 221.004L181.734 220.612L190.946 220.458C193.998 220.388 197.05 220.458 200.102 220.388L199.486 221.004L199.402 205.338L200.102 206.038L181.566 205.954C175.392 205.954 169.204 205.8 163.03 205.716L163.408 205.338C163.408 207.9 163.296 210.49 163.226 213.094L163.03 221.004ZM163.03 221.004L162.834 213.262C162.834 210.644 162.68 207.998 162.652 205.338V204.96H163.03C169.204 204.89 175.392 204.736 181.566 204.736L200.102 204.638H200.802V205.338L200.732 221.004V221.634H200.116C196.994 221.634 193.858 221.634 190.75 221.55L181.426 221.396L163.03 221.004Z" fill="#EBEBEB"/>
<path d="M87.472 85.5959H124.544V69.9299H87.472V85.5959Z" fill="#EBEBEB"/>
<path d="M66.808 105.35L85.498 105L94.71 104.846C97.776 104.846 100.814 104.846 103.88 104.846L103.25 105.462V89.796L103.95 90.496L85.4 90.3C79.212 90.3 73.038 90.146 66.864 90.062L67.242 89.684C67.242 92.246 67.116 94.822 67.06 97.44L66.808 105.35ZM66.808 105.35L66.598 97.608C66.598 94.99 66.444 92.344 66.416 89.684V89.306H66.808C72.982 89.306 79.156 89.082 85.344 89.068L103.88 88.984H104.58V89.684L104.496 105.35V105.98H103.88C100.744 105.98 97.622 105.98 94.5 105.896L85.176 105.742L66.808 105.35Z" fill="#EBEBEB"/>
<path d="M575.274 85.596L593.964 85.204L603.176 85.05C606.242 85.05 609.28 85.05 612.346 85.05L611.716 85.666L611.646 70L612.346 70.7L593.81 70.616C587.622 70.616 581.448 70.462 575.274 70.378L575.652 70C575.652 72.562 575.526 75.138 575.47 77.756L575.274 85.596ZM575.274 85.596L575.064 77.854C575.064 75.236 574.91 72.59 574.882 69.93V69.552H575.274C581.448 69.552 587.622 69.328 593.81 69.314L612.346 69.23H613.046V70L612.962 85.666V86.296H612.346C609.21 86.296 606.088 86.296 602.966 86.212L593.6 85.988L575.274 85.596Z" fill="#EBEBEB"/>
<path d="M516.67 281.498H553.742V265.832H516.67V281.498Z" fill="#EBEBEB"/>
<path d="M122.122 167.16C122.817 166.734 123.617 166.509 124.432 166.509C125.247 166.509 126.047 166.734 126.742 167.16L127.932 167.846C128.338 168.056 128.744 168.266 129.164 168.462C129.903 168.801 130.535 169.337 130.989 170.011C131.444 170.685 131.703 171.472 131.74 172.284L131.908 177.968L150.444 177.394L150.262 171.71C150.243 170.893 150.45 170.087 150.861 169.381C151.271 168.674 151.868 168.095 152.586 167.706C153.395 167.282 154.18 166.815 154.938 166.306C155.604 165.836 156.386 165.56 157.199 165.508C158.013 165.456 158.824 165.631 159.544 166.012L164.542 168.686L173.306 152.348L168.308 149.66C167.591 149.274 166.996 148.697 166.588 147.992C166.18 147.288 165.976 146.484 165.998 145.67C166.028 144.736 166 143.801 165.914 142.87C165.824 142.048 165.968 141.218 166.33 140.475C166.691 139.732 167.256 139.106 167.958 138.67L172.788 135.8L162.988 120.05L158.2 123.004C157.507 123.43 156.71 123.655 155.897 123.655C155.084 123.655 154.287 123.43 153.594 123.004C153.216 122.766 152.81 122.542 152.418 122.332C152.026 122.122 151.606 121.898 151.186 121.716C150.445 121.376 149.812 120.838 149.357 120.161C148.903 119.484 148.644 118.695 148.61 117.88L148.4 112.154L129.864 112.728L130.046 118.328C130.071 119.146 129.867 119.954 129.456 120.662C129.045 121.37 128.445 121.948 127.722 122.332C126.913 122.756 126.128 123.223 125.37 123.732C124.706 124.205 123.923 124.483 123.109 124.534C122.295 124.586 121.483 124.41 120.764 124.026L115.766 121.352L107.002 137.816L112 140.504C112.716 140.889 113.311 141.467 113.716 142.172C114.122 142.877 114.323 143.681 114.296 144.494C114.278 145.428 114.311 146.363 114.394 147.294C114.482 148.115 114.338 148.945 113.976 149.688C113.614 150.431 113.051 151.057 112.35 151.494L107.52 154.49L117.32 170.24L122.122 167.16ZM126.756 137.9C128.171 135.249 130.34 133.078 132.989 131.661C135.638 130.243 138.648 129.643 141.638 129.936C144.628 130.229 147.464 131.402 149.787 133.307C152.111 135.212 153.817 137.763 154.69 140.638C155.564 143.512 155.565 146.581 154.694 149.457C153.823 152.332 152.119 154.885 149.797 156.792C147.475 158.699 144.64 159.874 141.65 160.17C138.66 160.465 135.65 159.867 133 158.452C129.45 156.552 126.798 153.32 125.628 149.467C124.457 145.614 124.863 141.454 126.756 137.9Z" fill="#EBEBEB"/>
<path d="M607.6 357.756C607.89 357.262 608.313 356.859 608.82 356.592C609.327 356.324 609.898 356.204 610.47 356.244H612.388C612.947 356.214 613.503 356.338 613.997 356.602C614.491 356.866 614.903 357.26 615.188 357.742L617.176 361.2L628.376 354.704L626.388 351.26C626.103 350.764 625.963 350.199 625.983 349.627C626.002 349.056 626.182 348.501 626.5 348.026C626.855 347.475 627.177 346.915 627.466 346.346C627.726 345.828 628.126 345.392 628.621 345.09C629.116 344.788 629.686 344.632 630.266 344.638H634.242V331.646H630.266C629.687 331.655 629.118 331.501 628.622 331.202C628.127 330.902 627.726 330.469 627.466 329.952C627.177 329.373 626.855 328.812 626.5 328.272C626.182 327.797 626.002 327.242 625.983 326.671C625.963 326.1 626.103 325.534 626.388 325.038L628.376 321.58L617.176 315.098L615.174 318.556C614.89 319.04 614.479 319.437 613.986 319.704C613.492 319.97 612.934 320.096 612.374 320.068C612.052 320.068 611.73 320.068 611.408 320.068C611.086 320.068 610.778 320.068 610.456 320.068C609.885 320.103 609.315 319.981 608.809 319.714C608.303 319.447 607.88 319.047 607.586 318.556L605.598 315.098L594.398 321.58L596.386 325.024C596.671 325.52 596.811 326.086 596.791 326.657C596.772 327.228 596.592 327.783 596.274 328.258C595.929 328.809 595.607 329.369 595.308 329.938C595.05 330.458 594.65 330.894 594.154 331.196C593.659 331.498 593.088 331.654 592.508 331.646H588.532V344.638H592.508C593.088 344.632 593.658 344.788 594.153 345.09C594.648 345.392 595.048 345.828 595.308 346.346C595.597 346.925 595.919 347.486 596.274 348.026C596.592 348.501 596.772 349.056 596.791 349.627C596.811 350.199 596.671 350.764 596.386 351.26L594.398 354.704L605.598 361.2L607.6 357.756ZM600.782 338.156C600.779 336.051 601.401 333.993 602.568 332.241C603.736 330.489 605.397 329.123 607.341 328.316C609.284 327.508 611.424 327.296 613.489 327.705C615.554 328.114 617.451 329.126 618.941 330.613C620.43 332.101 621.445 333.997 621.856 336.061C622.268 338.125 622.058 340.266 621.253 342.211C620.448 344.156 619.085 345.818 617.335 346.988C615.585 348.158 613.527 348.782 611.422 348.782C608.606 348.775 605.908 347.653 603.916 345.662C601.925 343.67 600.803 340.972 600.796 338.156H600.782Z" fill="#EBEBEB"/>
<path d="M69.132 192.738C69.6272 193.027 70.0314 193.449 70.2986 193.957C70.5659 194.464 70.6856 195.036 70.644 195.608C70.644 195.916 70.644 196.238 70.644 196.56C70.644 196.882 70.644 197.204 70.644 197.526C70.6737 198.085 70.5498 198.641 70.2857 199.135C70.0217 199.629 69.6275 200.04 69.146 200.326L65.688 202.314L72.184 213.514L75.6 211.624C76.0969 211.342 76.662 211.204 77.2328 211.223C77.8036 211.243 78.3578 211.421 78.834 211.736C79.38 212.086 79.94 212.422 80.514 212.716C81.0239 212.968 81.4536 213.357 81.7553 213.839C82.0569 214.321 82.2185 214.877 82.222 215.446V219.422H95.2V215.446C95.2006 214.878 95.3594 214.322 95.6587 213.84C95.9579 213.358 96.3857 212.969 96.894 212.716C97.4728 212.423 98.0338 212.095 98.574 211.736C99.0502 211.421 99.6044 211.243 100.175 211.223C100.746 211.204 101.311 211.342 101.808 211.624L105.266 213.612L111.748 202.412L108.29 200.41C107.809 200.123 107.415 199.711 107.148 199.218C106.882 198.725 106.754 198.17 106.778 197.61C106.778 197.288 106.778 196.98 106.778 196.658C106.778 196.336 106.778 196.014 106.778 195.706C106.741 195.135 106.863 194.564 107.13 194.058C107.397 193.552 107.798 193.129 108.29 192.836L111.748 190.848L105.266 179.648L101.822 181.636C101.326 181.921 100.76 182.061 100.189 182.041C99.6175 182.022 99.063 181.842 98.588 181.524C98.0467 181.179 97.4867 180.857 96.908 180.558C96.3884 180.3 95.9525 179.9 95.6503 179.404C95.3481 178.909 95.192 178.338 95.2 177.758V173.782H82.25V177.758C82.2563 178.338 82.0995 178.908 81.7975 179.403C81.4955 179.898 81.0605 180.298 80.542 180.558C79.9634 180.847 79.4024 181.169 78.862 181.524C78.3843 181.842 77.8275 182.021 77.2539 182.041C76.6803 182.061 76.1125 181.92 75.614 181.636L72.184 179.648L65.688 190.848L69.132 192.738ZM88.732 185.92C90.837 185.917 92.8955 186.539 94.6471 187.706C96.3986 188.874 97.7646 190.535 98.572 192.479C99.3795 194.422 99.5922 196.562 99.1832 198.627C98.7743 200.692 97.762 202.589 96.2746 204.079C94.7871 205.568 92.8912 206.583 90.8269 206.995C88.7626 207.406 86.6225 207.196 84.6775 206.391C82.7325 205.587 81.0699 204.223 79.9001 202.473C78.7304 200.723 78.106 198.665 78.106 196.56C78.1097 193.742 79.2299 191.04 81.2215 189.045C83.2131 187.051 85.9137 185.927 88.732 185.92Z" fill="#EBEBEB"/>
<path d="M184.744 662.158C240.878 662.158 286.384 655.646 286.384 647.612C286.384 639.578 240.878 633.066 184.744 633.066C128.61 633.066 83.104 639.578 83.104 647.612C83.104 655.646 128.61 662.158 184.744 662.158Z" fill="#EBEBEB"/>
<path d="M554.624 491.722C544.264 470.428 526.134 459.522 505.624 465.528C485.114 471.534 482.02 500.066 497.224 507.262C512.428 514.458 527.73 493.458 535.794 489.132C543.858 484.806 554.624 491.722 554.624 491.722Z" fill="black"/>
<path d="M564.662 548.422C564.662 545.86 564.508 543.284 564.41 540.722C564.228 535.598 564.06 530.474 563.878 525.322C563.528 515.956 562.478 506.744 558.628 498.106C555.198 490.271 549.465 483.664 542.192 479.164C539.496 477.531 536.59 476.273 533.554 475.426C530.807 472.615 527.299 470.669 523.46 469.826C518.73 468.865 513.868 468.742 509.096 469.462C508.914 469.462 508.928 469.756 509.096 469.728C513.651 469.151 518.276 469.479 522.704 470.694C524.595 471.225 526.429 471.942 528.178 472.836C529.279 473.427 530.336 474.096 531.342 474.838C527.218 473.985 522.96 474.028 518.854 474.964C517.376 475.31 515.929 475.779 514.528 476.364C513.406 476.121 512.259 476.022 511.112 476.07C509.619 476.126 508.137 476.337 506.688 476.7C503.731 477.533 500.905 478.773 498.288 480.382C498.134 480.466 498.288 480.69 498.428 480.606C501.006 479.2 503.767 478.159 506.632 477.512C508.015 477.202 509.419 476.996 510.832 476.896C511.615 476.854 512.401 476.854 513.184 476.896C507.359 479.586 502.676 484.253 499.968 490.07C499.898 490.224 500.136 490.364 500.206 490.196C501.816 486.831 504.162 483.872 507.07 481.536C509.978 479.2 513.373 477.547 517.006 476.7C517.454 476.588 517.916 476.532 518.406 476.434C518.252 477.092 518.28 477.834 518.196 478.492C518.056 479.528 517.888 480.564 517.678 481.586C517.25 483.699 516.693 485.784 516.012 487.83C515.32 489.894 514.493 491.91 513.534 493.864C512.621 495.942 511.46 497.903 510.076 499.702C510.06 499.716 510.048 499.734 510.04 499.753C510.031 499.773 510.028 499.794 510.029 499.815C510.031 499.837 510.037 499.857 510.047 499.876C510.058 499.894 510.072 499.91 510.09 499.922C510.107 499.934 510.127 499.942 510.148 499.945C510.169 499.948 510.191 499.947 510.211 499.94C510.231 499.934 510.25 499.923 510.265 499.908C510.281 499.894 510.293 499.876 510.3 499.856C511.518 497.938 512.946 496.16 514.066 494.172C515.155 492.266 516.091 490.276 516.866 488.222C517.653 486.15 518.262 484.014 518.686 481.838C518.924 480.69 519.092 479.528 519.232 478.366C519.365 477.67 519.407 476.959 519.358 476.252C521.759 475.891 524.197 475.844 526.61 476.112C525.714 481.194 524.734 486.486 521.892 490.896C521.794 491.05 522.046 491.19 522.13 491.022C523.462 488.683 524.631 486.255 525.63 483.756C526.572 481.332 527.166 478.787 527.394 476.196C531.612 476.761 535.684 478.125 539.392 480.214C546.369 484.278 551.942 490.373 555.366 497.686C558.971 505.568 560.984 514.084 561.288 522.746C561.96 533.624 562.1 544.586 563.192 555.436C563.262 556.15 564.382 556.388 564.592 555.576C564.832 553.198 564.855 550.804 564.662 548.422Z" fill="#263238"/>
<path d="M540.708 477.47C540.025 476.64 539.234 475.906 538.356 475.286C537.502 474.586 536.634 473.886 535.724 473.298C533.93 472.049 531.944 471.103 529.844 470.498C529.676 470.498 529.606 470.736 529.844 470.764C531.953 471.287 533.931 472.24 535.654 473.564C536.522 474.208 537.348 474.88 538.16 475.594C538.88 476.348 539.678 477.024 540.54 477.61C540.624 477.806 540.82 477.624 540.708 477.47Z" fill="#263238"/>
<path d="M507.64 485.184C505.926 487.18 504.337 489.279 502.88 491.47C501.47 493.678 500.288 496.023 499.352 498.47C499.352 498.54 499.436 498.582 499.478 498.47C501.865 493.833 504.677 489.427 507.878 485.31C507.948 485.24 507.752 485.058 507.64 485.184Z" fill="#263238"/>
<path d="M529.928 483.084C529.711 484.413 529.32 485.707 528.766 486.934C528.193 488.12 527.533 489.262 526.792 490.35C526.792 490.42 526.792 490.49 526.904 490.434C528.696 488.38 529.841 485.843 530.194 483.14C530.222 483 529.956 482.902 529.928 483.084Z" fill="#263238"/>
<path d="M563.22 492.254C563.22 492.254 577.892 473.802 606.2 480.34C633.122 486.556 645.54 535.92 618.352 541.814C591.164 547.708 595.952 502.054 586.026 494.298C578.76 488.6 568.302 489.832 563.22 492.254Z" fill="black"/>
<path d="M628.082 507.304C626.235 505.686 624.285 504.189 622.244 502.824C620.322 501.513 618.231 500.467 616.028 499.716C614.92 498.041 613.685 496.454 612.332 494.97C609.832 492.289 606.949 489.992 603.778 488.152H604.618C606.115 488.075 607.615 488.075 609.112 488.152C612.135 488.344 615.1 489.079 617.862 490.322C618.016 490.322 618.128 490.14 617.974 490.084C615.177 488.875 612.251 487.991 609.252 487.452C607.792 487.194 606.311 487.067 604.828 487.074C604.033 487.078 603.238 487.125 602.448 487.214H601.986C599.389 485.906 596.65 484.901 593.824 484.218L594.622 483.994C596.01 483.695 597.411 483.466 598.822 483.308C601.644 482.986 604.495 483.028 607.306 483.434C607.334 483.425 607.358 483.407 607.376 483.383C607.393 483.359 607.402 483.33 607.402 483.301C607.402 483.272 607.393 483.243 607.376 483.219C607.358 483.195 607.334 483.177 607.306 483.168C604.463 482.832 601.598 482.72 598.738 482.832C596.338 482.898 593.95 483.208 591.612 483.756C589.91 483.44 588.189 483.244 586.46 483.168C576.576 482.748 565.81 486.43 559.734 494.55C553.658 502.67 552.468 513.506 551.334 523.306C549.674 536.966 549.313 550.752 550.256 564.48C550.256 565.278 551.46 565.138 551.474 564.368C551.852 552.734 552.258 541.086 553.378 529.494C553.896 524.118 554.456 518.728 555.352 513.408C556.008 508.828 557.324 504.367 559.258 500.164C561.36 495.869 564.687 492.293 568.82 489.888C572.965 487.5 577.589 486.065 582.358 485.688C586.628 485.33 590.927 485.733 595.056 486.878C594.908 487.705 594.884 488.55 594.986 489.384C595.084 490.435 595.295 491.472 595.616 492.478C595.917 493.447 596.311 494.385 596.792 495.278C597.324 496.244 597.982 497.112 598.57 498.078C598.654 498.218 598.892 498.078 598.78 497.924C597.618 496.256 596.864 494.337 596.582 492.324C596.414 491.37 596.302 490.407 596.246 489.44C596.246 488.712 596.246 487.97 596.246 487.242C600.738 488.626 604.931 490.838 608.608 493.766C609.294 494.326 610.008 494.9 610.61 495.502C609.677 496.373 608.867 497.367 608.202 498.456C607.233 499.873 606.39 501.372 605.682 502.936C604.383 506.074 603.503 509.369 603.064 512.736C603.064 512.904 603.316 512.96 603.33 512.736C603.858 509.464 604.953 506.309 606.564 503.412C607.309 501.96 608.146 500.557 609.07 499.212C609.546 498.54 610.036 497.812 610.554 497.21C610.834 496.86 611.142 496.496 611.394 496.118C614.726 499.379 617.447 503.21 619.43 507.43C618.078 508.903 616.967 510.58 616.14 512.4C615.126 514.201 614.242 516.073 613.494 518C612.126 521.771 610.994 525.624 610.106 529.536C610.106 529.704 610.344 529.76 610.372 529.536C611.239 525.591 612.588 521.769 614.39 518.154C615.244 516.39 616.14 514.64 617.078 512.918C618.055 511.316 618.943 509.662 619.738 507.962C621.623 512.095 622.72 516.544 622.972 521.08C622.972 521.248 623.252 521.234 623.238 521.08C622.717 513.966 620.54 507.072 616.882 500.948C618.618 501.69 620.354 502.348 622.02 503.3C624.149 504.447 626.124 505.858 627.9 507.5C628.026 507.626 628.208 507.416 628.082 507.304Z" fill="#263238"/>
<path d="M607.306 508.34C606.466 511.14 605.388 513.856 604.618 516.74C603.855 519.429 603.446 522.205 603.4 525C603.4 525.084 603.526 525.084 603.54 525C604.308 519.348 605.669 513.792 607.6 508.424C607.606 508.405 607.607 508.384 607.605 508.365C607.603 508.345 607.596 508.325 607.587 508.308C607.577 508.29 607.564 508.275 607.548 508.262C607.532 508.25 607.514 508.241 607.495 508.235C607.476 508.229 607.456 508.228 607.436 508.23C607.416 508.232 607.396 508.239 607.379 508.248C607.361 508.258 607.346 508.271 607.333 508.287C607.321 508.303 607.312 508.321 607.306 508.34Z" fill="#263238"/>
<path d="M625.254 501.41C624.142 500.339 622.878 499.438 621.502 498.736C620.103 498.098 618.65 497.583 617.162 497.196C616.994 497.196 616.938 497.42 617.162 497.462C618.636 497.837 620.049 498.417 621.362 499.184C622.701 499.879 623.988 500.669 625.212 501.55C625.227 501.547 625.24 501.54 625.251 501.529C625.262 501.519 625.27 501.506 625.274 501.492C625.278 501.478 625.279 501.463 625.275 501.448C625.272 501.434 625.264 501.421 625.254 501.41Z" fill="#263238"/>
<path d="M577.164 467.6C577.164 467.6 579.866 434.476 604.492 423.738C625.058 414.778 636.832 437.878 622.3 452.032C610.54 463.484 591.682 458.318 577.164 467.6Z" fill="black"/>
<path d="M617.75 430.164C613.999 431.682 610.338 433.416 606.788 435.358C603.842 437.047 601.004 438.917 598.29 440.958C598.696 440.118 599.046 439.25 599.466 438.424C600.11 437.15 600.796 435.89 601.552 434.686C603.066 432.175 604.891 429.866 606.984 427.812C607.11 427.7 606.9 427.504 606.788 427.63C604.702 429.684 602.792 431.908 601.076 434.28C600.228 435.482 599.448 436.73 598.738 438.018C598.012 439.211 597.452 440.496 597.072 441.84L596.806 442.036C592.505 445.462 588.565 449.318 585.046 453.544C585.116 453.222 585.172 452.9 585.27 452.592C585.732 450.982 586.222 449.372 586.754 447.776C587.82 444.379 589.316 441.133 591.206 438.116C591.304 437.976 591.066 437.836 590.968 437.99C589.036 441.008 587.314 444.156 585.816 447.412C585.128 449.002 584.557 450.639 584.108 452.312C583.752 453.399 583.485 454.514 583.31 455.644C582.232 457.044 581.182 458.374 580.188 459.844C569.618 474.894 564.312 493.094 563.038 511.322C562.665 516.75 562.571 522.194 562.758 527.632C562.783 533.121 563.251 538.599 564.158 544.012C564.228 544.362 564.76 544.25 564.76 543.914C564.634 539.126 564.144 534.366 564.046 529.578C563.955 524.776 564.109 519.972 564.508 515.186C565.281 505.626 567.083 496.177 569.884 487.004C572.744 477.604 576.96 468.671 582.4 460.488C583.436 460.278 584.472 459.998 585.494 459.732C586.516 459.466 587.958 459.102 589.176 458.766C591.54 458.155 593.838 457.311 596.036 456.246C596.051 456.237 596.064 456.225 596.074 456.211C596.084 456.197 596.091 456.181 596.095 456.164C596.099 456.147 596.099 456.129 596.096 456.112C596.093 456.095 596.087 456.079 596.078 456.064C596.069 456.049 596.057 456.037 596.043 456.026C596.029 456.016 596.013 456.009 595.996 456.005C595.979 456.001 595.961 456.001 595.944 456.004C595.927 456.007 595.911 456.013 595.896 456.022C593.713 457.206 591.347 458.015 588.896 458.416C586.964 458.808 584.962 459.046 583.03 459.494C584.822 456.89 586.726 454.37 588.756 451.962C593.448 452.387 598.178 452.037 602.756 450.926C605.192 450.336 607.586 449.588 609.924 448.686C612.402 447.734 614.726 446.516 617.162 445.494C617.194 445.479 617.218 445.452 617.23 445.42C617.242 445.387 617.24 445.351 617.225 445.319C617.21 445.287 617.183 445.263 617.151 445.251C617.118 445.239 617.082 445.241 617.05 445.256C612.642 447.659 607.83 449.234 602.854 449.904C598.46 450.61 594.018 450.975 589.568 450.996C591.318 448.994 593.124 447.034 595.056 445.2C601.524 439.04 609.21 433.384 617.722 430.43C617.988 430.374 617.904 430.108 617.75 430.164Z" fill="#263238"/>
<path d="M597.702 430.276C596.588 431.67 595.577 433.144 594.678 434.686C593.761 436.31 593.033 438.034 592.508 439.824C592.508 439.824 592.508 439.922 592.606 439.824C593.432 438.2 594.118 436.506 594.958 434.896C595.771 433.3 596.757 431.797 597.898 430.416C598.01 430.318 597.8 430.136 597.702 430.276Z" fill="#263238"/>
<path d="M620.606 441.294C619.005 442.185 617.31 442.894 615.552 443.408C613.867 443.971 612.152 444.438 610.414 444.808C610.33 444.808 610.344 444.962 610.414 444.948C612.229 444.758 614.018 444.368 615.748 443.786C617.452 443.137 619.116 442.389 620.732 441.546C620.9 441.448 620.76 441.21 620.606 441.294Z" fill="#263238"/>
<path d="M558.012 461.664C557.858 463.064 554.288 449.624 533.456 437.682C514.556 426.832 491.974 398.608 510.524 380.772C525.49 366.38 564.928 397.754 558.012 461.664Z" fill="black"/>
<path d="M572.348 538.818C572.043 524.827 570.94 510.865 569.044 497C567.397 484.239 564.447 471.681 560.238 459.522C558.698 455.14 556.92 450.842 555.002 446.6C555.108 444.948 555.08 443.291 554.918 441.644C554.82 439.516 554.624 437.444 554.428 435.288C554.232 433.132 554.022 431.088 553.77 428.946C553.518 426.804 553.07 424.746 552.986 422.632C552.993 422.611 552.995 422.589 552.991 422.567C552.988 422.545 552.979 422.524 552.966 422.506C552.953 422.488 552.936 422.474 552.917 422.464C552.897 422.454 552.875 422.448 552.853 422.448C552.831 422.448 552.809 422.454 552.789 422.464C552.77 422.474 552.753 422.488 552.74 422.506C552.727 422.524 552.718 422.545 552.715 422.567C552.711 422.589 552.713 422.611 552.72 422.632C553.135 424.846 553.383 427.087 553.462 429.338C553.63 431.382 553.742 433.426 553.798 435.47C553.868 437.528 553.798 439.572 553.798 441.63C553.798 442.358 553.798 443.142 553.728 443.94C551.782 439.74 549.682 435.722 547.4 431.76C548.8 423.122 546.98 414.092 545.216 405.65C545.216 405.482 544.922 405.566 544.964 405.734C545.837 410.144 546.305 414.623 546.364 419.118C546.448 422.66 546.28 426.202 546.266 429.744C545.762 428.904 545.272 428.05 544.754 427.21C542.052 422.8 539.154 418.474 536.102 414.288C536.352 412.241 536.286 410.168 535.906 408.142C535.563 405.864 535.058 403.614 534.394 401.408C533.722 399.21 532.994 397.04 532.084 394.912C531.174 392.784 529.984 390.642 529.116 388.458C529.032 388.262 528.766 388.458 528.864 388.556C529.977 390.63 530.85 392.823 531.468 395.094C532.163 397.219 532.734 399.384 533.176 401.576C533.624 403.76 533.974 405.958 534.282 408.184C534.492 409.584 534.618 411.166 534.87 412.636C530.412 406.648 525.543 400.978 520.296 395.668C520.17 395.542 519.988 395.738 520.1 395.864C528.041 404.789 535.132 414.434 541.282 424.676L541.94 425.824C540.792 425.11 539.476 424.536 538.398 423.934L532.336 420.602L526.428 417.382C525.42 416.822 524.426 416.234 523.39 415.702C522.162 415.153 520.981 414.502 519.862 413.756C519.834 413.736 519.799 413.727 519.765 413.732C519.731 413.738 519.7 413.756 519.68 413.784C519.66 413.812 519.651 413.847 519.656 413.881C519.662 413.915 519.68 413.946 519.708 413.966C521.71 415.072 523.488 416.766 525.42 417.942C527.352 419.118 529.34 420.378 531.37 421.512C535.066 423.57 539.084 425.054 542.738 427.196C545.258 431.62 547.591 436.151 549.738 440.79C547.526 439.39 545.272 437.99 542.976 436.73C541.506 435.904 540.022 435.092 538.524 434.308C537.036 433.619 535.627 432.769 534.324 431.774C534.297 431.761 534.267 431.757 534.237 431.763C534.208 431.768 534.181 431.783 534.161 431.805C534.14 431.827 534.128 431.855 534.124 431.884C534.121 431.914 534.127 431.944 534.142 431.97C536.567 434.163 539.258 436.045 542.15 437.57C544.824 439.138 547.526 440.65 550.312 442.008C552.533 446.899 554.54 451.869 556.332 456.918C565.096 481.74 568.316 508.088 569.856 534.254C570.318 542.052 570.556 549.85 570.654 557.662C570.752 565.474 570.332 573.258 570.346 581.056C570.346 581.28 570.724 581.336 570.766 581.056C571.704 574.14 571.858 567.056 572.166 560.14C572.474 553.224 572.502 545.916 572.348 538.818Z" fill="#263238"/>
<path d="M534.506 426.454C530.705 424.78 527.011 422.872 523.446 420.742C519.829 418.698 516.32 416.469 512.932 414.064C512.932 414.064 512.82 414.064 512.862 414.162C516.063 416.723 519.436 419.062 522.956 421.162C526.647 423.222 530.462 425.05 534.38 426.636C534.548 426.762 534.674 426.524 534.506 426.454Z" fill="#263238"/>
<path d="M540.54 398.398C540.232 397.194 539.854 396.004 539.448 394.828C539.46 394.807 539.467 394.783 539.467 394.758C539.467 394.733 539.46 394.709 539.448 394.688C539.182 394.016 538.902 393.288 538.636 392.686L538.538 392.434C538.538 392.308 538.426 392.182 538.384 392.056C538.342 391.93 538.3 392.056 538.314 392.056C538.328 392.056 538.44 392.518 538.51 392.742C538.541 392.87 538.578 392.996 538.622 393.12C540.002 397.75 541.036 402.477 541.716 407.26C541.716 407.414 541.968 407.414 541.954 407.26C541.761 404.268 541.288 401.301 540.54 398.398Z" fill="#263238"/>
<path d="M594.356 543.858L592.872 561.47L588.322 615.188H539.588L535.038 561.47L533.554 543.858H594.356Z" fill="#37474F"/>
<path d="M594.356 543.858L592.872 561.47H535.038L533.554 543.858H594.356Z" fill="#263238"/>
<path d="M599.13 536.788H528.766V553.686H599.13V536.788Z" fill="#37474F"/>
<path d="M66.416 615.188L137.312 614.852L208.208 614.726L350 614.488L491.792 614.712L562.688 614.838L633.584 615.188L562.688 615.524L491.792 615.65L350 615.888L208.208 615.65L137.312 615.524L66.416 615.188Z" fill="#263238"/>
<path d="M468.314 79.198H231.714C228.534 79.2181 225.388 79.8659 222.459 81.1042C219.529 82.3424 216.873 84.1468 214.642 86.4139C212.412 88.681 210.651 91.3661 209.46 94.3153C208.269 97.2645 207.673 100.42 207.704 103.6V590.8C207.648 597.21 210.14 603.38 214.632 607.953C219.124 612.527 225.248 615.129 231.658 615.188H468.258C471.438 615.166 474.582 614.518 477.512 613.28C480.441 612.042 483.098 610.24 485.33 607.975C487.562 605.71 489.327 603.027 490.522 600.08C491.717 597.134 492.32 593.98 492.296 590.8V103.6C492.324 100.423 491.725 97.2717 490.535 94.326C489.345 91.3803 487.586 88.6979 485.359 86.4319C483.132 84.1659 480.481 82.3608 477.556 81.1196C474.631 79.8784 471.491 79.2255 468.314 79.198ZM477.316 575.736C477.316 588.56 467.712 598.934 455.868 598.934H244.146C232.274 598.934 222.67 588.56 222.67 575.736V122.052C222.67 95.928 232.274 94.654 244.146 94.654H286.552C289.016 94.654 291.032 97.454 291.032 100.926V102.424C291.032 110.6 295.484 110.6 301 110.6H399C404.502 110.6 408.926 110.6 408.926 102.438V100.926C408.926 97.454 410.9 94.654 413.406 94.654H455.826C467.67 94.654 477.274 98.126 477.274 122.052L477.316 575.736Z" fill="#263238"/>
<path d="M363.37 100.422H336.616C336.399 100.422 336.184 100.379 335.984 100.296C335.783 100.213 335.601 100.092 335.448 99.9382C335.294 99.7848 335.173 99.6027 335.09 99.4022C335.007 99.2018 334.964 98.987 334.964 98.77C334.964 98.3319 335.138 97.9117 335.448 97.6019C335.758 97.2921 336.178 97.118 336.616 97.118H363.37C363.808 97.118 364.228 97.2921 364.538 97.6019C364.848 97.9117 365.022 98.3319 365.022 98.77C365.022 98.987 364.979 99.2018 364.896 99.4022C364.813 99.6027 364.692 99.7848 364.538 99.9382C364.385 100.092 364.203 100.213 364.002 100.296C363.802 100.379 363.587 100.422 363.37 100.422Z" fill="white"/>
<path d="M477.4 122.052V575.736C477.4 588.56 467.796 598.934 455.952 598.934H244.146C232.274 598.934 222.67 588.56 222.67 575.736V122.052C222.67 95.9281 232.274 94.6541 244.146 94.6541H286.552C289.016 94.6541 291.032 97.454 291.032 100.926V102.424C291.032 110.6 295.484 110.6 301 110.6H399C404.516 110.6 408.926 110.6 408.926 102.438V100.926C408.926 97.454 410.914 94.6541 413.42 94.6541H455.84C467.726 94.6541 477.4 98.1261 477.4 122.052Z" fill="white"/>
<path d="M248.444 139.37L240.912 132.328L248.444 125.272L249.606 126.518L243.418 132.328L249.606 138.138L248.444 139.37Z" fill="#C7C7C7"/>
<path d="M457.604 127.932C457.604 128.226 457.517 128.512 457.354 128.757C457.191 129.001 456.959 129.191 456.688 129.303C456.417 129.415 456.118 129.445 455.83 129.388C455.543 129.33 455.278 129.189 455.071 128.981C454.863 128.774 454.722 128.509 454.665 128.222C454.607 127.934 454.637 127.635 454.749 127.364C454.861 127.093 455.051 126.861 455.296 126.698C455.54 126.535 455.826 126.448 456.12 126.448C456.315 126.446 456.509 126.483 456.69 126.557C456.871 126.631 457.035 126.74 457.174 126.879C457.312 127.017 457.421 127.181 457.495 127.362C457.569 127.543 457.606 127.737 457.604 127.932Z" fill="#C7C7C7"/>
<path d="M457.604 133.196C457.604 133.489 457.517 133.776 457.354 134.02C457.191 134.264 456.959 134.455 456.688 134.567C456.417 134.679 456.118 134.709 455.83 134.651C455.543 134.594 455.278 134.453 455.071 134.245C454.863 134.038 454.722 133.773 454.665 133.485C454.607 133.198 454.637 132.899 454.749 132.628C454.861 132.357 455.051 132.125 455.296 131.962C455.54 131.799 455.826 131.712 456.12 131.712C456.315 131.71 456.509 131.747 456.69 131.821C456.871 131.895 457.035 132.004 457.174 132.142C457.312 132.281 457.421 132.445 457.495 132.626C457.569 132.807 457.606 133.001 457.604 133.196Z" fill="#C7C7C7"/>
<path d="M457.604 138.46C457.604 138.754 457.517 139.04 457.354 139.284C457.191 139.529 456.959 139.719 456.688 139.831C456.417 139.943 456.118 139.973 455.83 139.916C455.543 139.858 455.278 139.717 455.071 139.509C454.863 139.302 454.722 139.037 454.665 138.75C454.607 138.462 454.637 138.163 454.749 137.892C454.861 137.621 455.051 137.389 455.296 137.226C455.54 137.063 455.826 136.976 456.12 136.976C456.315 136.974 456.509 137.011 456.69 137.085C456.871 137.159 457.035 137.268 457.174 137.407C457.312 137.545 457.421 137.709 457.495 137.89C457.569 138.071 457.606 138.265 457.604 138.46Z" fill="#C7C7C7"/>
<path d="M279.23 104.846L278.824 105.252L278.586 105.476C277.537 104.433 276.117 103.848 274.638 103.848C273.159 103.848 271.739 104.433 270.69 105.476L270.466 105.238L270.06 104.832L270.578 104.37C270.953 104.079 271.357 103.826 271.782 103.614C272.285 103.36 272.823 103.181 273.378 103.082C273.637 103.03 273.899 102.992 274.162 102.97H274.862H275.394C275.896 103.03 276.389 103.147 276.864 103.32C277.202 103.448 277.53 103.603 277.844 103.782C278.176 103.972 278.49 104.192 278.782 104.44L279.216 104.832L279.23 104.846Z" fill="#C7C7C7"/>
<path d="M271.992 106.764L271.334 106.12C272.213 105.248 273.4 104.759 274.638 104.759C275.876 104.759 277.063 105.248 277.942 106.12L277.284 106.764C276.581 106.065 275.63 105.672 274.638 105.672C273.646 105.672 272.695 106.065 271.992 106.764Z" fill="#C7C7C7"/>
<path d="M276.64 107.422L275.996 108.052C275.811 107.871 275.592 107.728 275.352 107.632C275.112 107.536 274.855 107.488 274.596 107.492C274.336 107.487 274.077 107.535 273.836 107.634C273.596 107.733 273.378 107.88 273.196 108.066C272.986 107.842 272.762 107.632 272.552 107.422C272.814 107.142 273.13 106.919 273.482 106.767C273.834 106.614 274.213 106.536 274.596 106.536C274.979 106.536 275.358 106.614 275.71 106.767C276.061 106.919 276.378 107.142 276.64 107.422Z" fill="#C7C7C7"/>
<path d="M275.226 108.64C275.226 108.796 275.164 108.945 275.054 109.056C274.943 109.166 274.794 109.228 274.638 109.228C274.561 109.228 274.486 109.213 274.415 109.183C274.344 109.153 274.28 109.11 274.227 109.055C274.174 109 274.132 108.935 274.103 108.864C274.075 108.793 274.062 108.717 274.064 108.64C274.064 108.488 274.124 108.342 274.232 108.234C274.34 108.126 274.486 108.066 274.638 108.066C274.714 108.064 274.791 108.078 274.862 108.106C274.933 108.134 274.998 108.176 275.053 108.229C275.108 108.283 275.151 108.346 275.181 108.417C275.211 108.488 275.226 108.563 275.226 108.64Z" fill="#C7C7C7"/>
<path d="M239.274 106.078C239.274 105.742 239.374 105.414 239.56 105.135C239.747 104.857 240.013 104.639 240.323 104.512C240.633 104.384 240.975 104.351 241.304 104.418C241.633 104.484 241.934 104.647 242.171 104.885C242.407 105.123 242.567 105.427 242.631 105.756C242.695 106.086 242.659 106.427 242.529 106.736C242.399 107.045 242.179 107.309 241.899 107.493C241.618 107.678 241.29 107.775 240.954 107.772C240.732 107.772 240.513 107.728 240.308 107.643C240.103 107.557 239.917 107.432 239.761 107.275C239.605 107.117 239.481 106.931 239.398 106.725C239.314 106.52 239.272 106.3 239.274 106.078Z" fill="#C7C7C7"/>
<path d="M244.58 106.078C244.586 105.744 244.69 105.419 244.879 105.145C245.068 104.87 245.335 104.657 245.645 104.533C245.955 104.409 246.295 104.38 246.621 104.448C246.948 104.517 247.247 104.68 247.481 104.918C247.716 105.156 247.874 105.458 247.937 105.786C248 106.113 247.965 106.453 247.836 106.761C247.707 107.068 247.49 107.331 247.212 107.516C246.934 107.701 246.608 107.8 246.274 107.8C246.049 107.8 245.827 107.755 245.619 107.668C245.412 107.582 245.224 107.454 245.066 107.294C244.908 107.134 244.784 106.944 244.701 106.735C244.617 106.526 244.576 106.303 244.58 106.078Z" fill="#C7C7C7"/>
<path d="M249.9 106.078C249.906 105.744 250.01 105.419 250.199 105.145C250.388 104.87 250.655 104.657 250.965 104.533C251.275 104.409 251.615 104.38 251.941 104.448C252.268 104.517 252.567 104.68 252.801 104.918C253.036 105.156 253.194 105.458 253.257 105.786C253.32 106.113 253.285 106.453 253.156 106.761C253.027 107.068 252.81 107.331 252.532 107.516C252.254 107.701 251.928 107.8 251.594 107.8C251.369 107.8 251.147 107.755 250.939 107.668C250.732 107.582 250.544 107.454 250.386 107.294C250.228 107.134 250.104 106.944 250.021 106.735C249.937 106.526 249.896 106.303 249.9 106.078Z" fill="#C7C7C7"/>
<path d="M255.22 106.078C255.226 105.744 255.33 105.418 255.52 105.143C255.71 104.868 255.977 104.655 256.288 104.532C256.599 104.408 256.939 104.38 257.266 104.449C257.594 104.519 257.893 104.684 258.126 104.923C258.36 105.163 258.517 105.466 258.579 105.794C258.64 106.123 258.603 106.463 258.472 106.77C258.341 107.078 258.122 107.34 257.842 107.523C257.562 107.706 257.234 107.803 256.9 107.8C256.676 107.8 256.454 107.755 256.247 107.668C256.041 107.581 255.854 107.454 255.697 107.293C255.54 107.133 255.418 106.943 255.336 106.734C255.254 106.525 255.214 106.302 255.22 106.078Z" fill="#C7C7C7"/>
<path d="M260.54 106.078C260.545 105.744 260.65 105.418 260.84 105.143C261.03 104.868 261.297 104.655 261.608 104.532C261.919 104.408 262.259 104.38 262.586 104.449C262.914 104.519 263.213 104.684 263.446 104.923C263.68 105.163 263.837 105.466 263.899 105.794C263.96 106.123 263.923 106.463 263.792 106.77C263.661 107.078 263.442 107.34 263.162 107.523C262.882 107.706 262.554 107.803 262.22 107.8C261.996 107.8 261.774 107.755 261.567 107.668C261.361 107.581 261.173 107.454 261.017 107.293C260.86 107.133 260.737 106.943 260.656 106.734C260.574 106.525 260.534 106.302 260.54 106.078Z" fill="#C7C7C7"/>
<path d="M458.234 109.774H444.472V103.39H458.234V109.774ZM445.2 109.06H457.52V104.104H445.2V109.06Z" fill="#C7C7C7"/>
<path d="M454.482 104.482H445.62V108.682H454.482V104.482Z" fill="#C7C7C7"/>
<path d="M459.452 104.874H458.234V108.276H459.452V104.874Z" fill="#C7C7C7"/>
<path d="M261.366 571.2H259.42V580.09H255.808V575.554H249.396V580.09H245.784V571.2H243.852L252.602 562.142L261.366 571.2Z" fill="#EBEBEB"/>
<path d="M456.162 562.142H435.05V565.152H456.162V562.142Z" fill="#EBEBEB"/>
<path d="M456.162 569.604H435.05V572.614H456.162V569.604Z" fill="#EBEBEB"/>
<path d="M456.162 577.066H435.05V580.076H456.162V577.066Z" fill="#EBEBEB"/>
<path d="M356.006 569.912L350 576.324L343.994 569.912L345.058 568.932L350 574.196L354.942 568.932L356.006 569.912Z" fill="#EBEBEB"/>
<path d="M350 582.946C347.843 582.946 345.734 582.306 343.941 581.108C342.147 579.91 340.75 578.206 339.924 576.214C339.099 574.221 338.883 572.028 339.304 569.912C339.724 567.797 340.763 565.854 342.288 564.328C343.814 562.803 345.757 561.764 347.872 561.344C349.988 560.923 352.181 561.139 354.174 561.964C356.166 562.79 357.87 564.187 359.068 565.981C360.266 567.774 360.906 569.883 360.906 572.04C360.899 574.93 359.747 577.7 357.704 579.744C355.66 581.787 352.89 582.939 350 582.946ZM350 562.576C348.128 562.576 346.298 563.131 344.742 564.171C343.186 565.211 341.973 566.689 341.256 568.418C340.54 570.148 340.353 572.051 340.718 573.886C341.083 575.722 341.984 577.409 343.308 578.732C344.632 580.056 346.318 580.957 348.154 581.322C349.989 581.687 351.892 581.5 353.622 580.784C355.351 580.067 356.829 578.854 357.869 577.298C358.909 575.742 359.464 573.912 359.464 572.04C359.464 569.53 358.467 567.123 356.692 565.348C354.917 563.573 352.51 562.576 350 562.576Z" fill="#EBEBEB"/>
<path d="M333.718 532.854C333.718 533.574 333.505 534.278 333.105 534.876C332.705 535.475 332.136 535.941 331.471 536.217C330.806 536.492 330.074 536.565 329.368 536.424C328.662 536.284 328.013 535.937 327.504 535.428C326.995 534.919 326.648 534.27 326.508 533.564C326.367 532.858 326.44 532.126 326.715 531.461C326.991 530.796 327.457 530.227 328.056 529.827C328.654 529.427 329.358 529.214 330.078 529.214C330.557 529.212 331.031 529.305 331.473 529.487C331.916 529.67 332.318 529.938 332.656 530.276C332.994 530.614 333.262 531.016 333.445 531.459C333.627 531.901 333.72 532.375 333.718 532.854Z" fill="#DBDBDB"/>
<path d="M355.908 532.854C355.908 533.945 355.584 535.011 354.978 535.919C354.372 536.826 353.511 537.533 352.503 537.95C351.495 538.368 350.386 538.477 349.316 538.264C348.246 538.051 347.263 537.526 346.492 536.754C345.72 535.983 345.195 535 344.982 533.93C344.769 532.86 344.878 531.751 345.296 530.743C345.713 529.735 346.42 528.874 347.327 528.268C348.235 527.662 349.301 527.338 350.392 527.338C351.855 527.338 353.258 527.919 354.292 528.954C355.327 529.988 355.908 531.391 355.908 532.854Z" fill="black"/>
<path d="M374.346 532.854C374.346 533.574 374.133 534.278 373.733 534.876C373.333 535.475 372.764 535.941 372.099 536.217C371.434 536.492 370.702 536.565 369.996 536.424C369.29 536.284 368.641 535.937 368.132 535.428C367.623 534.919 367.276 534.27 367.136 533.564C366.996 532.858 367.068 532.126 367.343 531.461C367.619 530.796 368.085 530.227 368.684 529.827C369.282 529.427 369.986 529.214 370.706 529.214C371.185 529.212 371.659 529.305 372.101 529.487C372.544 529.67 372.946 529.938 373.284 530.276C373.622 530.614 373.89 531.016 374.073 531.459C374.255 531.901 374.348 532.375 374.346 532.854Z" fill="#DBDBDB"/>
<path d="M398.342 431.438H300.09V462.686H398.342V431.438Z" fill="black"/>
<path d="M327.6 451.444V443.044C327.598 442.941 327.617 442.838 327.656 442.742C327.694 442.646 327.752 442.559 327.825 442.485C327.899 442.412 327.986 442.355 328.082 442.316C328.178 442.277 328.28 442.258 328.384 442.26C328.488 442.258 328.592 442.277 328.688 442.316C328.785 442.354 328.873 442.412 328.947 442.485C329.022 442.558 329.081 442.645 329.121 442.741C329.161 442.837 329.182 442.94 329.182 443.044V450.702H333.074C333.286 450.702 333.489 450.786 333.638 450.936C333.788 451.085 333.872 451.288 333.872 451.5C333.872 451.712 333.788 451.915 333.638 452.064C333.489 452.214 333.286 452.298 333.074 452.298H328.384C328.275 452.298 328.167 452.276 328.067 452.232C327.967 452.189 327.877 452.125 327.803 452.044C327.729 451.964 327.673 451.869 327.638 451.766C327.603 451.662 327.59 451.553 327.6 451.444Z" fill="white"/>
<path d="M343 443.436C343.933 444.413 344.453 445.711 344.453 447.062C344.453 448.413 343.933 449.711 343 450.688C342.569 451.168 342.042 451.552 341.454 451.817C340.866 452.083 340.229 452.222 339.584 452.228C338.924 452.227 338.271 452.089 337.666 451.824C337.062 451.559 336.518 451.172 336.07 450.688C335.153 449.703 334.643 448.408 334.643 447.062C334.643 445.716 335.153 444.421 336.07 443.436C336.516 442.949 337.059 442.56 337.664 442.295C338.269 442.03 338.923 441.894 339.584 441.896C340.229 441.899 340.867 442.038 341.456 442.303C342.044 442.568 342.57 442.954 343 443.436ZM342.818 447.062C342.818 446.133 342.468 445.239 341.838 444.556C341.553 444.239 341.206 443.985 340.818 443.809C340.43 443.633 340.01 443.539 339.584 443.534C339.147 443.532 338.714 443.622 338.313 443.798C337.913 443.974 337.554 444.232 337.26 444.556C336.625 445.236 336.275 446.132 336.28 447.062C336.271 447.988 336.622 448.882 337.26 449.554C337.553 449.879 337.912 450.14 338.312 450.318C338.712 450.497 339.146 450.589 339.584 450.59C340.011 450.582 340.431 450.486 340.819 450.308C341.207 450.129 341.554 449.873 341.838 449.554C342.449 448.869 342.779 447.979 342.762 447.062H342.818Z" fill="white"/>
<path d="M346.78 447.076C346.803 446.093 347.099 445.135 347.634 444.311C348.17 443.486 348.924 442.826 349.812 442.405C350.701 441.984 351.689 441.818 352.667 441.926C353.644 442.034 354.573 442.411 355.348 443.016C355.519 443.15 355.63 443.346 355.656 443.561C355.682 443.776 355.622 443.993 355.488 444.164C355.354 444.335 355.158 444.445 354.943 444.472C354.728 444.498 354.511 444.438 354.34 444.304C353.695 443.805 352.902 443.534 352.086 443.534C351.606 443.527 351.129 443.616 350.684 443.796C350.24 443.976 349.835 444.244 349.496 444.584C349.156 444.901 348.885 445.285 348.7 445.711C348.514 446.137 348.418 446.597 348.418 447.062C348.418 447.527 348.514 447.987 348.7 448.413C348.885 448.839 349.156 449.223 349.496 449.54C349.835 449.88 350.24 450.147 350.684 450.328C351.129 450.508 351.606 450.597 352.086 450.59C352.776 450.585 353.453 450.397 354.046 450.044V448.084H351.988C351.773 448.077 351.568 447.987 351.417 447.833C351.266 447.68 351.18 447.474 351.176 447.258C351.18 447.045 351.267 446.842 351.419 446.693C351.571 446.544 351.775 446.46 351.988 446.46H354.788C354.896 446.456 355.003 446.474 355.104 446.512C355.205 446.551 355.297 446.608 355.375 446.683C355.454 446.757 355.516 446.846 355.56 446.945C355.603 447.044 355.626 447.15 355.628 447.258V450.436C355.636 450.515 355.636 450.595 355.628 450.674C355.578 450.819 355.479 450.943 355.348 451.024C354.576 451.629 353.651 452.007 352.676 452.117C351.701 452.227 350.715 452.063 349.828 451.645C348.941 451.227 348.187 450.57 347.651 449.749C347.116 448.927 346.819 447.973 346.794 446.992L346.78 447.076Z" fill="white"/>
<path d="M359.016 442.974C359.014 442.871 359.033 442.768 359.072 442.672C359.111 442.576 359.168 442.489 359.241 442.415C359.315 442.342 359.402 442.285 359.498 442.246C359.594 442.207 359.697 442.188 359.8 442.19C359.905 442.188 360.009 442.207 360.106 442.245C360.204 442.284 360.293 442.341 360.368 442.414C360.444 442.487 360.504 442.574 360.546 442.67C360.588 442.766 360.61 442.869 360.612 442.974V451.374C360.605 451.584 360.516 451.784 360.364 451.93C360.213 452.076 360.011 452.158 359.8 452.158C359.697 452.16 359.594 452.141 359.498 452.102C359.402 452.063 359.315 452.006 359.241 451.933C359.168 451.859 359.111 451.772 359.072 451.676C359.033 451.58 359.014 451.477 359.016 451.374V442.974Z" fill="white"/>
<path d="M364.868 451.444C364.868 451.652 364.785 451.851 364.638 451.998C364.491 452.145 364.292 452.228 364.084 452.228C363.876 452.228 363.677 452.145 363.53 451.998C363.383 451.851 363.3 451.652 363.3 451.444V443.044C363.297 442.917 363.325 442.79 363.381 442.676C363.437 442.561 363.52 442.462 363.622 442.386C363.792 442.271 363.998 442.225 364.201 442.256C364.403 442.287 364.587 442.393 364.714 442.554L369.348 448.966V443.1C369.348 442.999 369.368 442.899 369.407 442.805C369.445 442.712 369.502 442.627 369.574 442.556C369.645 442.484 369.73 442.427 369.823 442.389C369.917 442.35 370.017 442.33 370.118 442.33C370.324 442.33 370.521 442.411 370.667 442.555C370.814 442.699 370.898 442.895 370.902 443.1V451.5C370.898 451.707 370.815 451.904 370.668 452.05C370.522 452.197 370.325 452.28 370.118 452.284C370.004 452.282 369.892 452.255 369.79 452.204C369.689 452.153 369.6 452.08 369.53 451.99L369.46 451.906L364.868 445.536V451.444Z" fill="white"/>
<path d="M373.8 189.546V199.78H366.562V189.546C366.562 179.746 359.156 171.892 350.056 171.892C340.956 171.892 333.55 179.802 333.55 189.546V215.166H326.2V189.546C326.2 175.546 336.854 164.248 350 164.248C363.146 164.248 373.8 175.602 373.8 189.546Z" fill="#C7C7C7"/>
<path d="M326.256 199.808L333.494 200.102V215.166H326.256V199.808Z" fill="#A6A6A6"/>
<path d="M383.026 206.584H316.974V266.504H383.026V206.584Z" fill="black"/>
<path opacity="0.1" d="M383.026 206.584H350V266.504H383.026V206.584Z" fill="black"/>
<path d="M352.8 238.742L355.6 251.846H343.868L346.668 238.742C345.582 238.068 344.745 237.058 344.284 235.866C343.824 234.673 343.764 233.363 344.114 232.134C344.465 230.905 345.207 229.823 346.227 229.053C347.247 228.283 348.491 227.866 349.769 227.866C351.047 227.866 352.291 228.283 353.311 229.053C354.332 229.823 355.073 230.905 355.424 232.134C355.774 233.363 355.715 234.673 355.254 235.866C354.793 237.058 353.956 238.068 352.87 238.742H352.8Z" fill="#263238"/>
<path d="M435.064 332.626H264.95V361.746H435.064V332.626Z" fill="white"/>
<path d="M435.75 362.446H264.25V331.926H435.75V362.446ZM265.65 361.046H434.35V333.326H265.65V361.046Z" fill="#EBEBEB"/>
<path d="M282.604 340.662H281.204V353.108H282.604V340.662Z" fill="#37474F"/>
<path d="M288.134 346.178H275.688V347.578H288.134V346.178Z" fill="#37474F"/>
<path d="M285.818 341.976L277.014 350.773L278.004 351.764L286.808 342.966L285.818 341.976Z" fill="#37474F"/>
<path d="M277.994 341.983L277.004 342.973L285.804 351.774L286.794 350.784L277.994 341.983Z" fill="#37474F"/>
<path d="M303.716 340.662H302.316V353.108H303.716V340.662Z" fill="#37474F"/>
<path d="M309.246 346.178H296.8V347.578H309.246V346.178Z" fill="#37474F"/>
<path d="M306.926 341.991L298.122 350.788L299.112 351.779L307.915 342.981L306.926 341.991Z" fill="#37474F"/>
<path d="M299.11 341.979L298.12 342.969L306.921 351.769L307.911 350.779L299.11 341.979Z" fill="#37474F"/>
<path d="M324.828 340.662H323.428V353.108H324.828V340.662Z" fill="#37474F"/>
<path d="M330.358 346.178H317.912V347.578H330.358V346.178Z" fill="#37474F"/>
<path d="M328.033 341.991L319.229 350.789L320.219 351.779L329.023 342.982L328.033 341.991Z" fill="#37474F"/>
<path d="M320.227 341.974L319.237 342.964L328.037 351.765L329.027 350.775L320.227 341.974Z" fill="#37474F"/>
<path d="M345.954 340.662H344.554V353.108H345.954V340.662Z" fill="#37474F"/>
<path d="M351.47 346.178H339.024V347.578H351.47V346.178Z" fill="#37474F"/>
<path d="M349.155 341.992L340.351 350.79L341.341 351.78L350.145 342.983L349.155 341.992Z" fill="#37474F"/>
<path d="M341.353 341.988L340.363 342.978L349.164 351.779L350.154 350.789L341.353 341.988Z" fill="#37474F"/>
<path d="M367.066 340.662H365.666V353.108H367.066V340.662Z" fill="#37474F"/>
<path d="M372.582 346.178H360.136V347.578H372.582V346.178Z" fill="#37474F"/>
<path d="M370.263 341.993L361.459 350.791L362.448 351.781L371.252 342.983L370.263 341.993Z" fill="#37474F"/>
<path d="M362.455 341.97L361.465 342.959L370.266 351.76L371.256 350.77L362.455 341.97Z" fill="#37474F"/>
<path d="M388.178 340.662H386.778V353.108H388.178V340.662Z" fill="#37474F"/>
<path d="M393.708 346.178H381.262V347.578H393.708V346.178Z" fill="#37474F"/>
<path d="M391.38 341.984L382.576 350.781L383.566 351.772L392.37 342.974L391.38 341.984Z" fill="#37474F"/>
<path d="M383.572 341.965L382.582 342.955L391.382 351.756L392.372 350.766L383.572 341.965Z" fill="#37474F"/>
<path d="M420.532 351.68C419.013 351.589 417.532 351.166 416.195 350.44C414.857 349.714 413.695 348.704 412.79 347.48L412.482 347.06L412.79 346.654C413.637 345.389 414.783 344.353 416.126 343.636C417.469 342.919 418.968 342.544 420.49 342.544C422.012 342.544 423.511 342.919 424.854 343.636C426.197 344.353 427.343 345.389 428.19 346.654L428.484 347.06L428.19 347.48C427.295 348.694 426.146 349.699 424.824 350.424C423.501 351.149 422.037 351.578 420.532 351.68ZM414.26 347.116C414.982 348.111 415.929 348.921 417.024 349.479C418.119 350.037 419.331 350.328 420.56 350.328C421.789 350.328 423.001 350.037 424.096 349.479C425.191 348.921 426.138 348.111 426.86 347.116C426.138 346.121 425.191 345.311 424.096 344.753C423.001 344.195 421.789 343.904 420.56 343.904C419.331 343.904 418.119 344.195 417.024 344.753C415.929 345.311 414.982 346.121 414.26 347.116Z" fill="#EBEBEB"/>
<path d="M420.518 350.266C422.258 350.266 423.668 348.856 423.668 347.116C423.668 345.376 422.258 343.966 420.518 343.966C418.778 343.966 417.368 345.376 417.368 347.116C417.368 348.856 418.778 350.266 420.518 350.266Z" fill="#EBEBEB"/>
<path d="M425.704 340.799L414.518 351.986L415.508 352.976L426.694 341.789L425.704 340.799Z" fill="#EBEBEB"/>
<path d="M304.262 302.302H302.022V306.236C302.022 306.503 301.916 306.76 301.727 306.949C301.538 307.138 301.281 307.244 301.014 307.244C300.747 307.244 300.49 307.138 300.301 306.949C300.112 306.76 300.006 306.503 300.006 306.236V295.526C300.006 295.394 300.032 295.264 300.083 295.142C300.134 295.021 300.208 294.911 300.302 294.818C300.396 294.726 300.507 294.653 300.629 294.604C300.752 294.555 300.882 294.53 301.014 294.532H304.262C304.792 294.5 305.323 294.577 305.822 294.758C306.32 294.939 306.777 295.22 307.164 295.584C307.55 295.948 307.858 296.387 308.068 296.874C308.279 297.361 308.387 297.886 308.387 298.417C308.387 298.948 308.279 299.473 308.068 299.96C307.858 300.447 307.55 300.886 307.164 301.25C306.777 301.614 306.32 301.895 305.822 302.076C305.323 302.257 304.792 302.334 304.262 302.302ZM302.022 300.286H304.262C304.521 300.308 304.782 300.277 305.028 300.193C305.274 300.109 305.5 299.975 305.692 299.8C305.884 299.624 306.037 299.41 306.141 299.172C306.246 298.934 306.3 298.677 306.3 298.417C306.3 298.157 306.246 297.9 306.141 297.662C306.037 297.424 305.884 297.21 305.692 297.034C305.5 296.859 305.274 296.725 305.028 296.641C304.782 296.557 304.521 296.526 304.262 296.548H302.022V300.286Z" fill="black"/>
<path d="M315.812 304.234H311.402L310.506 306.6C310.427 306.785 310.297 306.942 310.131 307.054C309.964 307.166 309.769 307.227 309.568 307.23C309.452 307.251 309.334 307.251 309.218 307.23C308.967 307.136 308.763 306.946 308.65 306.702C308.538 306.459 308.525 306.181 308.616 305.928L312.634 295.232C312.715 295.043 312.849 294.882 313.021 294.77C313.193 294.658 313.395 294.6 313.6 294.602C313.804 294.597 314.005 294.654 314.176 294.767C314.346 294.879 314.477 295.042 314.552 295.232L318.57 305.928C318.661 306.181 318.649 306.459 318.536 306.702C318.423 306.946 318.219 307.136 317.968 307.23C317.853 307.255 317.733 307.255 317.618 307.23C317.419 307.23 317.224 307.17 317.059 307.057C316.894 306.945 316.767 306.786 316.694 306.6L315.812 304.234ZM315.07 302.246L313.6 298.34L312.2 302.246H315.07Z" fill="black"/>
<path d="M320.348 304.08C320.427 303.973 320.527 303.884 320.643 303.819C320.759 303.753 320.887 303.713 321.02 303.701C321.152 303.69 321.285 303.706 321.411 303.749C321.537 303.793 321.651 303.863 321.748 303.954C322.724 304.784 323.942 305.275 325.22 305.354C326.027 305.371 326.82 305.136 327.488 304.682C327.715 304.545 327.905 304.355 328.042 304.128C328.178 303.901 328.257 303.644 328.272 303.38C328.276 303.176 328.218 302.976 328.104 302.806C327.963 302.587 327.777 302.401 327.558 302.26C326.788 301.822 325.943 301.533 325.066 301.406C324.255 301.268 323.465 301.028 322.714 300.692C322.031 300.397 321.448 299.911 321.034 299.292C320.753 298.849 320.607 298.333 320.614 297.808C320.626 297.287 320.759 296.775 321.001 296.313C321.244 295.852 321.591 295.453 322.014 295.148C322.934 294.511 324.031 294.178 325.15 294.196C326.581 294.257 327.961 294.745 329.112 295.596C329.214 295.664 329.301 295.751 329.368 295.852C329.436 295.954 329.483 296.068 329.506 296.187C329.53 296.307 329.529 296.43 329.505 296.55C329.481 296.67 329.433 296.783 329.364 296.884C329.3 296.989 329.215 297.08 329.115 297.152C329.014 297.223 328.901 297.274 328.78 297.3C328.66 297.326 328.535 297.328 328.414 297.304C328.293 297.281 328.178 297.233 328.076 297.164C327.242 296.488 326.221 296.083 325.15 296.002C324.426 295.99 323.715 296.205 323.12 296.618C322.919 296.737 322.751 296.904 322.631 297.105C322.511 297.305 322.444 297.533 322.434 297.766C322.421 297.943 322.465 298.12 322.56 298.27C322.691 298.459 322.857 298.621 323.05 298.746C323.748 299.156 324.518 299.427 325.318 299.544C326.18 299.697 327.021 299.951 327.824 300.3C328.56 300.624 329.191 301.148 329.644 301.812C329.926 302.276 330.076 302.809 330.078 303.352C330.058 303.91 329.905 304.455 329.632 304.941C329.36 305.428 328.975 305.843 328.51 306.152C327.534 306.846 326.361 307.209 325.164 307.188C323.456 307.11 321.823 306.47 320.516 305.368C320.33 305.214 320.209 304.996 320.178 304.757C320.147 304.518 320.208 304.276 320.348 304.08Z" fill="black"/>
<path d="M332.29 304.08C332.367 303.984 332.463 303.905 332.571 303.846C332.68 303.788 332.799 303.752 332.921 303.74C333.044 303.728 333.168 303.741 333.285 303.778C333.403 303.815 333.512 303.874 333.606 303.954C334.581 304.784 335.8 305.275 337.078 305.354C337.886 305.373 338.679 305.138 339.346 304.682C339.573 304.545 339.763 304.355 339.9 304.128C340.036 303.901 340.115 303.644 340.13 303.38C340.134 303.176 340.076 302.976 339.962 302.806C339.825 302.584 339.638 302.397 339.416 302.26C338.651 301.822 337.81 301.532 336.938 301.406C336.131 301.269 335.345 301.029 334.6 300.692C333.915 300.394 333.328 299.909 332.906 299.292C332.63 298.846 332.484 298.332 332.486 297.808C332.498 297.287 332.63 296.775 332.873 296.313C333.116 295.852 333.463 295.453 333.886 295.148C334.806 294.511 335.903 294.178 337.022 294.196C338.453 294.257 339.832 294.745 340.984 295.596C341.086 295.664 341.173 295.751 341.24 295.852C341.308 295.954 341.355 296.068 341.378 296.187C341.402 296.307 341.401 296.43 341.377 296.55C341.352 296.67 341.305 296.783 341.236 296.884C341.172 296.989 341.087 297.08 340.987 297.152C340.886 297.223 340.772 297.274 340.652 297.3C340.532 297.326 340.407 297.328 340.286 297.304C340.165 297.281 340.05 297.233 339.948 297.164C339.114 296.488 338.093 296.083 337.022 296.002C336.297 295.99 335.587 296.205 334.992 296.618C334.791 296.737 334.623 296.904 334.503 297.105C334.383 297.305 334.315 297.533 334.306 297.766C334.293 297.943 334.337 298.12 334.432 298.27C334.563 298.459 334.729 298.621 334.922 298.746C335.621 299.153 336.39 299.424 337.19 299.544C338.052 299.697 338.893 299.951 339.696 300.3C340.43 300.621 341.057 301.146 341.502 301.812C341.793 302.272 341.944 302.807 341.936 303.352C341.918 303.909 341.768 304.453 341.498 304.94C341.228 305.427 340.845 305.843 340.382 306.152C339.402 306.849 338.224 307.212 337.022 307.188C335.314 307.11 333.68 306.47 332.374 305.368C332.204 305.201 332.101 304.978 332.085 304.74C332.07 304.502 332.143 304.267 332.29 304.08Z" fill="black"/>
<path d="M361.088 296.03L356.636 306.6C356.617 306.663 356.584 306.721 356.538 306.768C356.538 306.768 356.538 306.838 356.454 306.88C356.37 306.922 356.454 306.88 356.454 306.88L356.328 306.964C356.328 306.964 356.244 307.062 356.16 307.076H356.006H355.572H355.446C355.383 307.059 355.328 307.019 355.292 306.964L355.166 306.88C355.166 306.88 355.166 306.81 355.096 306.768C355.088 306.712 355.088 306.656 355.096 306.6L352.716 301L350.336 306.6C350.336 306.6 350.336 306.726 350.266 306.768L350.154 306.88C350.111 306.9 350.073 306.928 350.042 306.964L349.902 307.076C349.856 307.066 349.808 307.066 349.762 307.076H349.314H349.174C349.11 307.052 349.053 307.014 349.006 306.964C349.006 306.964 348.936 306.964 348.88 306.88L348.796 306.768C348.796 306.768 348.796 306.656 348.698 306.6L344.232 296.016C344.151 295.777 344.165 295.516 344.269 295.287C344.374 295.057 344.562 294.876 344.795 294.779C345.028 294.683 345.29 294.679 345.526 294.769C345.762 294.858 345.955 295.034 346.066 295.26L349.622 303.66L351.974 298.06C352.052 297.876 352.182 297.719 352.349 297.609C352.516 297.5 352.712 297.442 352.912 297.444C353.113 297.447 353.308 297.506 353.477 297.615C353.645 297.724 353.78 297.878 353.864 298.06L356.202 303.66L359.744 295.26C359.849 295.016 360.046 294.823 360.293 294.723C360.539 294.623 360.815 294.625 361.06 294.728C361.221 294.905 361.312 295.135 361.317 295.374C361.322 295.613 361.241 295.846 361.088 296.03Z" fill="black"/>
<path d="M373.8 296.1C374.979 297.341 375.636 298.987 375.636 300.699C375.636 302.411 374.979 304.057 373.8 305.298C373.248 305.901 372.578 306.384 371.831 306.716C371.084 307.048 370.277 307.223 369.46 307.23C368.626 307.225 367.801 307.052 367.036 306.72C366.271 306.388 365.581 305.904 365.008 305.298C363.857 304.043 363.218 302.402 363.218 300.699C363.218 298.996 363.857 297.355 365.008 296.1C365.579 295.491 366.269 295.006 367.034 294.674C367.8 294.341 368.625 294.169 369.46 294.168C370.278 294.171 371.086 294.345 371.833 294.677C372.58 295.01 373.25 295.494 373.8 296.1ZM373.562 300.692C373.562 299.52 373.123 298.391 372.33 297.528C371.969 297.124 371.526 296.801 371.032 296.579C370.538 296.357 370.002 296.241 369.46 296.24C368.907 296.236 368.359 296.349 367.853 296.571C367.346 296.792 366.892 297.119 366.52 297.528C365.723 298.388 365.282 299.519 365.288 300.692C365.277 301.866 365.718 302.999 366.52 303.856C366.893 304.265 367.347 304.592 367.853 304.816C368.359 305.04 368.906 305.157 369.46 305.158C370.002 305.151 370.537 305.031 371.031 304.807C371.525 304.583 371.967 304.259 372.33 303.856C373.106 302.987 373.526 301.857 373.506 300.692H373.562Z" fill="black"/>
<path d="M387.562 305.732C387.606 305.856 387.624 305.988 387.616 306.119C387.607 306.25 387.573 306.378 387.514 306.496C387.455 306.613 387.374 306.718 387.274 306.803C387.174 306.888 387.057 306.953 386.932 306.992C386.798 307.014 386.66 307.014 386.526 306.992C386.278 306.998 386.035 306.93 385.826 306.796C385.579 306.64 385.376 306.423 385.238 306.166C384.949 305.476 384.82 304.729 384.86 303.982C384.858 303.705 384.78 303.434 384.636 303.198C384.501 302.982 384.313 302.803 384.09 302.68C383.78 302.48 383.44 302.334 383.082 302.246H380.94V306.18C380.938 306.312 380.91 306.443 380.858 306.565C380.806 306.686 380.73 306.796 380.635 306.889C380.54 306.981 380.428 307.054 380.305 307.103C380.182 307.152 380.05 307.176 379.918 307.174C379.654 307.174 379.402 307.069 379.215 306.883C379.029 306.697 378.924 306.444 378.924 306.18V295.47C378.922 295.339 378.947 295.209 378.996 295.087C379.045 294.966 379.118 294.856 379.211 294.763C379.304 294.67 379.414 294.597 379.535 294.548C379.657 294.499 379.787 294.474 379.918 294.476H383.166C383.967 294.473 384.749 294.717 385.405 295.176C386.061 295.635 386.558 296.286 386.83 297.039C387.101 297.792 387.133 298.611 386.921 299.383C386.709 300.155 386.263 300.842 385.644 301.35C385.885 301.543 386.097 301.769 386.274 302.022C386.668 302.6 386.878 303.283 386.876 303.982C386.85 304.343 386.873 304.706 386.946 305.06C387.098 305.109 387.235 305.197 387.343 305.315C387.451 305.433 387.526 305.576 387.562 305.732ZM385 298.424C385.002 298.177 384.955 297.932 384.861 297.704C384.767 297.475 384.629 297.268 384.455 297.093C384.28 296.919 384.073 296.781 383.844 296.687C383.616 296.593 383.371 296.546 383.124 296.548H380.898V300.286H383.124C383.619 300.286 384.094 300.09 384.446 299.742C384.797 299.393 384.996 298.919 385 298.424Z" fill="black"/>
<path d="M390.516 306.236V295.526C390.514 295.395 390.539 295.265 390.588 295.143C390.637 295.022 390.71 294.912 390.803 294.819C390.896 294.726 391.006 294.653 391.127 294.604C391.249 294.555 391.379 294.53 391.51 294.532H393.652C395.284 294.609 396.824 295.311 397.952 296.493C399.08 297.676 399.71 299.247 399.71 300.881C399.71 302.515 399.08 304.086 397.952 305.269C396.824 306.451 395.284 307.153 393.652 307.23H391.51C391.246 307.23 390.994 307.125 390.807 306.939C390.621 306.753 390.516 306.5 390.516 306.236ZM392.532 305.214H393.652C394.759 305.151 395.799 304.667 396.56 303.862C397.321 303.056 397.746 301.989 397.746 300.881C397.746 299.773 397.321 298.706 396.56 297.901C395.799 297.095 394.759 296.611 393.652 296.548H392.532V305.214Z" fill="black"/>
<path d="M607.684 140.392C607.684 140.392 597.002 225.876 579.446 245.112C558.446 268.184 543.046 264.81 534.646 276.71C526.134 264.796 510.846 268.184 489.846 245.098C472.29 225.862 461.636 140.378 461.636 140.378C507.836 117.978 534.716 92.778 534.716 92.778C535.416 93.576 562.156 118.3 607.684 140.392Z" fill="#37474F"/>
<path d="M534.59 92.806V276.71C526.078 264.796 510.79 268.184 489.79 245.098C472.234 225.862 461.58 140.378 461.58 140.378C507.78 117.978 534.66 92.778 534.66 92.778L534.59 92.806Z" fill="#455A64"/>
<path d="M596.4 147.28C596.4 147.28 587.384 219.492 572.6 235.746C554.778 255.262 541.8 252.392 534.674 262.444C527.492 252.392 514.57 255.262 496.748 235.746C481.936 219.492 472.948 147.28 472.948 147.28C512.008 128.31 534.688 107.058 534.688 107.058C534.688 107.058 557.27 128.31 596.4 147.28Z" fill="#455A64"/>
<path d="M472.85 147.28C472.85 147.28 481.866 219.478 496.65 235.746C514.444 255.248 527.352 252.406 534.548 262.43V107.03C533.904 107.8 511.308 128.604 472.85 147.28Z" fill="#37474F"/>
<path d="M554.842 205C566.023 193.819 566.023 175.692 554.842 164.511C543.662 153.33 525.534 153.33 514.353 164.511C503.173 175.692 503.173 193.819 514.353 205C525.534 216.181 543.662 216.181 554.842 205Z" fill="black"/>
<path d="M531.328 203.35L518.574 190.092L523.306 185.542L530.334 192.85L545.482 169.61L550.984 173.194L531.328 203.35Z" fill="white"/>
<path d="M112.518 345.912H210.742V325.57H112.518V345.912Z" fill="#C7C7C7"/>
<path d="M184.38 345.744L187.124 371.742L221.088 615.118H230.79L203.994 371.742L201.824 345.744H184.38Z" fill="#C7C7C7"/>
<path d="M92.442 615.118H102.158L136.122 371.742L138.866 345.744H121.422L119.252 371.742L92.442 615.118Z" fill="#C7C7C7"/>
<path d="M108.836 535.612H217.182V529.508H108.836V535.612Z" fill="#C7C7C7"/>
<path d="M203.994 370.832H187.124L184.38 345.744H201.824L203.994 370.832Z" fill="#A6A6A6"/>
<path d="M119.252 370.832H136.122L138.866 345.744H121.422L119.252 370.832Z" fill="#A6A6A6"/>
<path d="M125.622 227.808C129.822 229.964 130.55 237.398 143.626 236.992C145.488 236.992 147.014 236.194 148.722 236.824C151.228 237.734 153.202 239.736 155.428 241.192C157.218 242.395 159.257 243.18 161.392 243.488C165.489 243.972 169.626 243.017 173.096 240.786C175.238 239.47 177.03 237.65 179.102 236.222C181.174 234.794 193.676 231.77 195.79 224.742C197.19 220.276 196.924 215.194 191.59 208.67C190.361 207.506 189.525 205.99 189.196 204.33C189.2 202.875 189.53 201.44 190.162 200.13C190.896 198.643 191.164 196.97 190.932 195.328C190.337 193.758 189.377 192.352 188.132 191.226C186.172 188.86 186.536 185.444 188.132 181.244C188.765 179.462 188.98 177.558 188.762 175.68C188.544 173.801 187.897 171.997 186.872 170.408C185.587 168.587 184.072 166.94 182.364 165.508C179.97 163.24 179.564 161.14 178.486 157.934C176.456 151.774 173.278 149.016 169.54 147.112C166.166 145.418 166.278 146.062 162.666 146.608C159.006 144.375 154.698 143.447 150.444 143.976C146.496 144.48 143.234 147.126 140.252 149.66C137.592 151.928 135.156 154.364 135.016 158.186C134.932 160.384 135.464 162.568 135.366 164.766C135.226 167.566 133.672 169.344 131.81 171.108C129.034 173.469 127.118 176.684 126.364 180.25C125.874 183.232 128.814 187.866 125.37 192.276C122.346 196.168 116.97 200.676 115.57 205.548C111.3 220.766 121.66 225.736 125.622 227.808Z" fill="#263238"/>
<path d="M176.26 236.012C182.266 235.102 191.492 236.236 194.684 229.544C195.947 228.515 196.948 227.2 197.602 225.707C198.257 224.215 198.548 222.589 198.45 220.962C198.038 217.488 196.429 214.266 193.9 211.848C192.433 210.467 191.153 208.899 190.092 207.186C189.753 205.851 189.505 204.495 189.35 203.126C189.598 201.375 190.068 199.662 190.75 198.03C189.434 200.83 188.216 203.854 189.434 206.934C189.613 207.373 189.823 207.799 190.064 208.208C190.502 209.828 191.102 211.399 191.856 212.898C193.83 216.818 195.636 220.36 195.37 224.938C195.324 226.467 194.956 227.97 194.292 229.348C191.694 231.627 188.449 233.036 185.01 233.38C184.926 233.38 184.926 233.534 185.01 233.52C188.12 233.206 191.102 232.123 193.69 230.37C190.204 235.368 182.098 234.682 176.232 235.844C176.078 235.844 176.134 236.026 176.26 236.012ZM195.146 228.41V228.284C196.186 224.574 195.919 220.62 194.39 217.084C193.438 214.746 192.01 212.646 191.072 210.294C190.918 209.888 190.764 209.482 190.624 209.062C192.024 210.896 193.788 212.422 195.104 214.214C197.904 218.106 198.8 222.74 196.126 226.954C195.837 227.463 195.509 227.95 195.146 228.41Z" fill="#263238"/>
<path d="M181.58 164.598C183.821 166.545 185.957 168.611 187.978 170.786C189.388 172.213 190.234 174.103 190.358 176.106C190.41 178.124 189.773 180.099 188.552 181.706C188.104 182.378 187.642 183.106 187.236 183.764C187.14 185.067 187.346 186.375 187.838 187.586C188.818 189.896 190.988 191.324 192.038 193.662C193.662 197.442 191.856 200.55 190.26 203.924C191.422 201.124 193.06 198.422 192.136 195.286C191.408 192.724 189.532 191.338 188.118 189.252C187.257 187.927 186.773 186.393 186.718 184.814C185.458 187.362 185.024 190.05 187.25 192.724C187.348 192.85 187.25 193.018 187.082 192.906C184.282 190.106 185.01 186.592 186.732 183.582C186.838 181.804 187.23 180.055 187.894 178.402C187.894 178.234 188.216 178.402 188.188 178.528C187.936 179.844 187.6 181.16 187.418 182.462L187.712 182.028C189.952 178.822 190.834 175.028 188.258 171.668C186.326 169.106 183.694 167.09 181.538 164.668C181.44 164.64 181.524 164.542 181.58 164.598Z" fill="#263238"/>
<path d="M198.422 428.946C198.422 428.946 173.348 484.638 173.32 484.68C168.476 495.306 164.402 504.7 162.764 509.768C162.753 509.795 162.753 509.825 162.764 509.852C162.246 510.993 162.002 512.24 162.05 513.492C162.05 513.492 162.05 513.562 162.05 513.576C164.234 517.174 248.01 558.376 251.426 558.866C254.842 559.356 256.396 549.654 254.422 545.454C252.448 541.254 227.416 511.126 227.416 511.126L252 455.21L198.422 428.946Z" fill="#EB9481"/>
<path d="M178.472 473.2C178.472 473.2 173.348 484.596 173.32 484.638C168.476 495.264 164.402 504.658 162.764 509.726C162.753 509.753 162.753 509.783 162.764 509.81C162.379 510.99 162.139 512.212 162.05 513.45C162.05 513.45 162.05 513.52 162.05 513.534C164.234 517.132 248.01 558.334 251.426 558.824C254.842 559.314 256.396 549.612 254.422 545.412C252.448 541.212 227.416 511.084 227.416 511.084L232.806 499.548L178.472 473.2Z" fill="#EBEBEB"/>
<path d="M251.398 558.754C247.982 558.306 164.178 517.146 161.98 513.548C161.126 512.148 166.404 499.632 173.18 484.638L173.39 484.162L227.766 510.118L227.29 511.028C227.29 511.028 252.336 541.142 254.324 545.342C256.312 549.542 254.8 559.216 251.398 558.754Z" fill="#263238"/>
<path d="M254.156 556.374C255.374 557.69 252.574 562.576 251.356 562.45C250.138 562.324 158.956 517.034 157.556 515.914C156.156 514.794 159.474 509.516 161.42 510.118C163.366 510.72 254.156 556.374 254.156 556.374Z" fill="black"/>
<path d="M231.812 513.422C226.758 509.656 219.548 507.164 213.346 509.04C213.108 509.04 213.22 509.46 213.43 509.488C219.585 510.381 225.626 511.934 231.448 514.122C231.536 514.144 231.629 514.135 231.712 514.098C231.795 514.06 231.863 513.996 231.905 513.915C231.947 513.834 231.961 513.742 231.944 513.652C231.927 513.563 231.881 513.482 231.812 513.422Z" fill="white"/>
<path d="M234.64 517.818C229.586 514.038 222.376 511.56 216.174 513.436C215.936 513.506 216.048 513.842 216.258 513.884C222.413 514.772 228.454 516.321 234.276 518.504C234.365 518.536 234.463 518.536 234.551 518.502C234.639 518.468 234.712 518.403 234.757 518.32C234.801 518.236 234.814 518.139 234.792 518.047C234.771 517.955 234.717 517.873 234.64 517.818Z" fill="white"/>
<path d="M237.468 522.2C232.414 518.434 225.19 515.942 219.002 517.818C218.764 517.902 218.862 518.238 219.002 518.266C225.162 519.157 231.208 520.71 237.034 522.9C237.127 522.958 237.239 522.976 237.345 522.951C237.451 522.926 237.543 522.86 237.601 522.767C237.659 522.674 237.677 522.562 237.652 522.456C237.627 522.35 237.561 522.258 237.468 522.2Z" fill="white"/>
<path d="M182.686 500.346C178.094 494.326 168.686 501.438 173.32 507.472C177.954 513.506 187.278 506.38 182.686 500.346Z" fill="white"/>
<path d="M213.206 380.534C212.646 396.732 181.426 466.69 181.426 466.69L236.18 491.89C236.18 491.89 280.378 414.092 276.276 378.252C272.776 347.844 196.266 291.606 183.988 275.758C182.168 273.406 182.784 263.942 182.784 263.942H133.112V275.8C152.082 316.064 208.824 364.364 213.024 378.546C213.19 379.195 213.251 379.866 213.206 380.534Z" fill="#37474F"/>
<path d="M235.872 480.2C226.856 475.874 229.502 476.98 220.472 472.766C216.034 470.708 193.774 460.278 189.294 459.116C189.27 459.105 189.242 459.104 189.217 459.113C189.192 459.122 189.172 459.141 189.161 459.165C189.15 459.189 189.149 459.217 189.158 459.242C189.167 459.267 189.186 459.287 189.21 459.298C193.046 461.902 215.544 471.8 220.01 473.774C229.152 477.806 226.576 476.574 235.76 480.466C235.914 480.55 236.04 480.27 235.872 480.2Z" fill="#263238"/>
<path d="M145.6 284.27C160.593 307.122 177.356 328.762 195.734 348.992C200.242 353.906 204.876 358.68 209.51 363.468C213.43 367.514 217.434 372.008 218.4 377.762C219.492 384.174 217 390.558 214.998 396.536C212.8 403.116 210.588 409.682 208.25 416.22C205.73 423.22 195.426 448.686 193.732 452.116C192.878 453.824 207.368 417.116 209.72 410.34C212.072 403.564 214.452 396.83 216.454 389.97C217.614 386.477 218.089 382.793 217.854 379.12C217.399 375.579 215.986 372.229 213.766 369.432C209.734 364.056 204.498 359.492 199.92 354.592C190.428 344.428 181.379 333.872 172.774 322.924C162.981 310.558 153.84 297.688 145.39 284.368C145.384 284.354 145.38 284.339 145.379 284.324C145.379 284.309 145.381 284.294 145.386 284.279C145.391 284.265 145.399 284.252 145.41 284.241C145.42 284.23 145.432 284.22 145.446 284.214C145.46 284.208 145.475 284.204 145.49 284.203C145.505 284.203 145.52 284.205 145.535 284.21C145.549 284.215 145.562 284.223 145.573 284.234C145.584 284.244 145.594 284.256 145.6 284.27Z" fill="#263238"/>
<path d="M116.2 550.368C116.2 550.368 113.764 611.422 113.75 611.464C114.03 623.14 114.478 633.374 115.15 638.638C115.144 638.67 115.144 638.704 115.15 638.736C115.215 639.996 115.574 641.224 116.2 642.32V642.39C119.728 644.658 213.108 645.19 216.37 644.112C219.632 643.034 216.818 633.64 213.22 630.728C209.622 627.816 173.922 611.632 173.922 611.632L175.784 550.62L116.2 550.368Z" fill="#EB9481"/>
<path d="M114.198 599.382C114.198 599.382 113.722 611.422 113.708 611.464C113.988 623.14 114.436 633.374 115.108 638.638C115.102 638.67 115.102 638.704 115.108 638.736C115.332 639.969 115.698 641.172 116.2 642.32V642.39C119.728 644.658 213.108 645.19 216.37 644.112C219.632 643.034 216.818 633.64 213.22 630.728C209.622 627.816 173.922 611.632 173.922 611.632L174.3 599.284L114.198 599.382Z" fill="#EBEBEB"/>
<path d="M216.3 644C213.038 645.078 119.7 644.644 116.116 642.376C114.716 641.536 114.03 627.928 113.624 611.45V610.932L173.824 610.54V611.562C173.824 611.562 209.496 627.718 213.136 630.63C216.776 633.542 219.576 642.936 216.3 644Z" fill="#263238"/>
<path d="M217.742 640.668C219.408 641.326 219.03 646.94 217.812 647.374C216.594 647.808 114.8 646.898 113.064 646.506C111.328 646.114 112 639.898 114.016 639.59C116.032 639.282 217.742 640.668 217.742 640.668Z" fill="black"/>
<path d="M178.892 611.8C172.704 610.61 165.116 611.534 160.37 615.916C160.188 616.084 160.37 616.35 160.622 616.28C166.54 614.403 172.641 613.164 178.822 612.584C178.926 612.593 179.029 612.561 179.109 612.494C179.19 612.427 179.24 612.331 179.249 612.227C179.258 612.123 179.226 612.02 179.159 611.94C179.092 611.86 178.996 611.809 178.892 611.8Z" fill="white"/>
<path d="M183.4 614.502C177.212 613.312 169.638 614.236 164.878 618.618C164.696 618.786 164.878 619.052 165.144 618.982C171.061 617.103 177.163 615.864 183.344 615.286C183.448 615.293 183.551 615.259 183.629 615.191C183.708 615.123 183.757 615.026 183.764 614.922C183.771 614.818 183.737 614.715 183.669 614.637C183.601 614.558 183.504 614.509 183.4 614.502Z" fill="white"/>
<path d="M187.81 617.218C181.622 616.028 174.034 616.938 169.288 621.334C169.092 621.502 169.288 621.768 169.54 621.698C175.457 619.819 181.559 618.58 187.74 618.002C187.844 618.011 187.947 617.979 188.027 617.912C188.108 617.845 188.158 617.749 188.167 617.645C188.176 617.541 188.144 617.438 188.077 617.358C188.01 617.278 187.914 617.227 187.81 617.218Z" fill="white"/>
<path d="M128.982 621.474C122.22 618.058 116.9 628.558 123.662 631.974C130.424 635.39 135.8 624.904 128.982 621.474Z" fill="white"/>
<path d="M175.56 592.004L114.52 592.508C114.52 592.508 124.684 343.21 117.88 335.062C101.696 315.7 104.272 289.884 115.178 263.956H170.8C170.8 263.956 168.126 303.324 168.392 304.472C185.5 379.092 175.56 592.004 175.56 592.004Z" fill="#37474F"/>
<path d="M172.2 579.502C158.886 578.466 123.816 579.6 119.392 580.272C119.371 580.283 119.354 580.299 119.342 580.318C119.33 580.338 119.324 580.361 119.324 580.384C119.324 580.407 119.33 580.43 119.342 580.45C119.354 580.469 119.371 580.485 119.392 580.496C123.774 581.378 163.982 580.118 172.186 579.796C172.218 579.788 172.246 579.77 172.267 579.744C172.288 579.719 172.3 579.687 172.302 579.654C172.303 579.621 172.294 579.589 172.276 579.561C172.258 579.534 172.231 579.513 172.2 579.502Z" fill="#263238"/>
<path d="M172.116 279.258C171.556 286.258 171.836 298.326 167.762 298.508C163.688 298.69 164.402 283.99 164.29 280.602C164.178 277.536 163.128 277.956 163.016 281.568C162.708 291.368 163.016 300.034 168.168 299.628C173.32 299.222 173.334 284.032 173.208 280.56C173.138 278.768 172.284 277.032 172.116 279.258Z" fill="#263238"/>
<path d="M168 298.97C167.746 301.445 167.798 303.942 168.154 306.404C168.224 306.6 169.008 306.404 169.092 306.278C169.568 305.256 169.19 300.44 169.316 299.138C169.338 298.963 169.29 298.787 169.183 298.648C169.129 298.579 169.063 298.521 168.987 298.478C168.912 298.435 168.828 298.407 168.742 298.396C168.567 298.374 168.391 298.422 168.252 298.529C168.113 298.637 168.022 298.795 168 298.97Z" fill="#263238"/>
<path d="M169.75 307.65C171.486 313.81 173.264 325.598 172.844 328.65C172.844 328.93 172.396 329.028 172.34 328.734C171.78 325.43 169.316 309.54 169.064 307.874C168.812 306.208 169.26 305.928 169.75 307.65Z" fill="#263238"/>
<path d="M159.04 312.508C159.852 311.712 160.723 310.977 161.644 310.31C162.554 309.596 163.464 308.91 164.444 308.224C166.376 306.824 168.364 305.62 170.394 304.416C172.424 303.212 174.412 302.162 176.484 301.112C178.556 300.062 180.936 299.194 183.092 298.116C183.218 298.046 183.33 298.228 183.204 298.298C181.16 299.432 179.256 300.846 177.268 302.092C175.28 303.338 173.292 304.626 171.29 305.872C169.288 307.118 167.398 308.336 165.438 309.54C164.421 310.175 163.385 310.791 162.33 311.388C161.386 311.996 160.404 312.544 159.39 313.026C159.054 313.152 158.858 312.718 159.04 312.508Z" fill="#263238"/>
<path d="M123.718 462.294C124.6 442.316 126 420 126.336 400.05C126.495 390.054 126.569 380.053 126.56 370.048C126.56 360.122 126.56 346.864 126.112 336.952C125.846 331.912 116.97 328.02 115.164 313.348C113.913 304.992 114.578 296.461 117.11 288.4C117.74 286.441 118.483 284.519 119.336 282.646C119.336 282.52 119.574 282.646 119.518 282.758C115.965 290.997 114.49 299.982 115.22 308.924C115.478 313.432 116.422 317.875 118.02 322.098C120.4 328.02 126.266 332.822 126.574 335.972C127.036 340.662 127.106 344.722 127.162 349.44C127.218 354.158 127.274 359.24 127.302 364.14C127.358 374.145 127.33 384.146 127.218 394.142C126.994 414.05 126.471 433.949 125.65 453.838C124.81 473.732 119.658 573.342 119.322 575.638C119.322 575.89 118.874 575.834 118.888 575.638C119.504 565.6 122.822 482.272 123.718 462.294Z" fill="#263238"/>
<path d="M156.688 218.008C169.932 245.336 186.746 274.932 202.482 279.608C217.462 284.018 246.498 247.24 255.682 237.608C258.958 234.108 232.344 214.088 228.214 217.126C220.43 222.852 206.444 238.448 204.092 237.902C201.74 237.356 182.098 218.68 164.402 203C153.678 193.494 147.518 199.066 156.688 218.008Z" fill="#EB9481"/>
<path d="M278.712 220.262C282.352 218.736 310.38 217.84 310.38 211.764C310.38 205.688 274.694 207.396 274.694 207.396L278.712 220.262Z" fill="#EB9481"/>
<path d="M224.952 220.976C229.852 214.886 234.164 208.376 238.42 207.116C241.374 206.276 273.098 207.648 278.068 207.354C283.038 207.06 300.706 207.508 301.126 211.848C301.7 217.994 280.756 217.938 278.53 221.088C270.816 231.924 241.486 247.968 241.486 247.968L224.952 220.976Z" fill="#EB9481"/>
<path d="M301.588 211.946C301.281 210.794 300.558 209.796 299.558 209.146C297.388 207.634 294.532 207.494 291.984 207.298C288.12 206.937 284.233 206.904 280.364 207.2C280.345 207.2 280.328 207.207 280.315 207.221C280.301 207.234 280.294 207.251 280.294 207.27C280.294 207.289 280.301 207.306 280.315 207.32C280.328 207.333 280.345 207.34 280.364 207.34C283.262 207.34 286.16 207.41 289.058 207.648C291.712 207.759 294.346 208.163 296.912 208.852C298.072 209.16 299.121 209.791 299.936 210.672C300.225 210.98 300.432 211.355 300.537 211.764C300.642 212.173 300.643 212.601 300.538 213.01C299.684 215.684 294.406 216.482 291.97 217.028C288.792 217.742 285.488 218.428 282.282 219.016C282.142 219.016 282.282 219.268 282.352 219.24C285.67 218.582 289.184 218.316 292.516 217.714C295.218 217.224 298.116 216.678 300.3 214.914C300.77 214.589 301.14 214.138 301.367 213.614C301.595 213.089 301.671 212.512 301.588 211.946Z" fill="#263238"/>
<path d="M252.254 198.712L253.177 193.985L308.331 204.756C308.83 204.854 309.27 205.145 309.554 205.567C309.838 205.989 309.943 206.507 309.846 207.006L309.658 207.968C309.56 208.467 309.268 208.907 308.846 209.191C308.424 209.476 307.907 209.58 307.408 209.483L252.254 198.712Z" fill="black"/>
<path opacity="0.1" d="M253.17 193.995L252.247 198.722L258.897 200.02L259.82 195.294L253.17 193.995Z" fill="black"/>
<path d="M232.078 187.978L230.454 196.378C229.897 199.219 230.491 202.164 232.106 204.566C233.721 206.969 236.224 208.631 239.064 209.188C241.904 209.745 244.85 209.151 247.252 207.536C249.655 205.921 251.317 203.419 251.874 200.578L253.512 192.178C253.788 190.771 253.784 189.323 253.5 187.917C253.216 186.511 252.658 185.175 251.858 183.985C251.058 182.795 250.031 181.774 248.836 180.98C247.642 180.187 246.302 179.637 244.895 179.361C243.488 179.085 242.04 179.089 240.634 179.373C239.228 179.657 237.892 180.215 236.702 181.015C234.298 182.631 232.635 185.136 232.078 187.978ZM250.082 190.064C249.788 191.307 249.116 192.428 248.158 193.273C247.2 194.118 246.004 194.645 244.734 194.782C245.853 195.394 246.759 196.333 247.329 197.474C247.9 198.615 248.108 199.903 247.926 201.166C247.268 204.498 243.6 206.598 239.722 205.842C235.844 205.086 233.226 201.754 233.87 198.436C234.17 197.194 234.846 196.074 235.806 195.23C236.765 194.386 237.962 193.858 239.232 193.718C238.107 193.112 237.197 192.174 236.626 191.031C236.054 189.889 235.85 188.597 236.04 187.334C236.698 183.988 240.366 181.916 244.244 182.672C248.122 183.428 250.74 186.732 250.082 190.064Z" fill="black"/>
<path d="M253.587 191.856L251.829 200.856C251.736 201.334 252.048 201.797 252.526 201.891L252.966 201.976C253.444 202.07 253.907 201.758 254 201.28L255.758 192.28C255.851 191.802 255.539 191.339 255.061 191.245L254.622 191.159C254.144 191.066 253.68 191.378 253.587 191.856Z" fill="black"/>
<path d="M255.759 192.285L254.002 201.285C253.908 201.763 254.22 202.226 254.698 202.319L255.138 202.405C255.616 202.499 256.079 202.187 256.173 201.709L257.93 192.709C258.023 192.23 257.712 191.767 257.234 191.674L256.794 191.588C256.316 191.495 255.853 191.807 255.759 192.285Z" fill="black"/>
<path d="M295.12 200.158L296.758 200.48L297.682 195.706L299.096 195.986L298.606 198.478L300.244 198.8L300.734 196.308L301.966 196.546L301.21 200.48L302.848 200.802L303.618 196.868L305.382 197.218L304.36 202.468L305.998 202.79L307.02 197.54L308.686 197.862L307.384 204.568L292.712 201.712L294.014 194.992L296.044 195.398L295.12 200.158Z" fill="black"/>
<path d="M107.184 272.384L185.332 273.672L179.2 250.264C181.239 247.326 182.61 243.978 183.217 240.454C183.824 236.931 183.652 233.317 182.714 229.866C180.838 222.978 171.948 212.66 166.488 206.066C153.216 190.106 141.68 197.316 137.998 201.418C123.956 217.14 107.184 272.384 107.184 272.384Z" fill="black"/>
<path d="M145.67 210.518V206.066L148.624 209.37L151.816 208.376L150.262 211.176L151.76 212.744L149.436 212.982V216.006L146.888 213.878L144.816 215.6L145.054 213.052L142.03 211.652L145.67 210.518ZM178.962 260.54L176.498 262.794L174.23 261.59L175.028 264.18L172.088 265.706L174.888 266.91L174.202 269.15L176.246 268.366L178.262 270.914L178.57 267.582L182.77 266.182L178.682 264.404L178.962 260.54ZM150.388 243.922L152.782 248.682L155.148 244.132L159.656 244.916L157.262 240.128L160.608 236.936L155.862 237.104L154.91 232.456L152.418 237.272L146.09 236.782L149.814 240.632L146.37 243.278L150.388 243.922ZM169.022 216.412L170.17 214.48L168.014 214.676L167.272 212.898L166.11 214.83L164.22 214.368L165.354 216.02L163.954 217.42L166.236 217.21L167.496 219.562L168.014 217.378L169.722 217.994L169.022 216.412ZM132.37 267.4L133.518 265.482L131.376 265.664L130.62 263.886L129.472 265.832L127.582 265.356L128.716 267.008L127.316 268.408L129.598 268.212L130.858 270.564L131.376 268.366L133.098 268.996L132.37 267.4ZM145.222 232.694L146.37 230.776L144.214 230.958L143.472 229.18L142.324 231.126L140.42 230.65L141.554 232.302L140.154 233.702L142.436 233.506L143.696 235.844L144.214 233.66L145.936 234.276L145.222 232.694ZM131.306 237.902L130.914 236.642L130.158 237.664L129.08 237.286L129.472 238.56L128.534 239.204L129.696 239.358V240.534L130.494 239.442L132.02 239.82L131.264 238.728L132.216 238.21L131.306 237.902ZM167.58 267.932L167.188 266.672L166.418 267.694L165.354 267.33L165.746 268.59L164.794 269.248L165.97 269.388V270.564L166.768 269.486L168.294 269.85L167.538 268.758L168.49 268.254L167.58 267.932ZM178.43 231.336L179.424 230.454L178.178 230.188L178.066 229.054L177.072 229.936L176.092 229.348L176.442 230.468L175.392 231L176.708 231.28L177.002 232.834L177.688 231.686L178.542 232.344L178.43 231.336ZM158.83 254.982L159.81 254.1L158.564 253.834L158.452 252.7L157.472 253.582L156.478 252.994L156.828 254.114L155.778 254.646L157.094 254.926L157.388 256.48L158.074 255.332L158.928 255.99L158.83 254.982ZM118.482 262.402L119.462 261.52L118.216 261.24L118.118 260.106L117.124 261.002L116.2 260.4L116.536 261.534L115.486 262.052L116.802 262.346L117.11 263.886L117.782 262.752L118.636 263.41L118.482 262.402Z" fill="white"/>
<path d="M158.298 248.892C161.64 248.584 165 248.528 168.35 248.724C170.016 248.836 171.668 249.032 173.32 249.27C174.132 249.382 174.958 249.466 175.784 249.55C176.649 249.655 177.523 249.655 178.388 249.55C178.388 249.55 178.486 249.648 178.388 249.676C177.589 249.855 176.781 249.986 175.966 250.068C175.169 250.117 174.369 250.117 173.572 250.068C171.892 249.956 170.198 249.774 168.518 249.662C165.116 249.41 161.714 249.172 158.298 249.172C158.2 249.2 158.2 248.906 158.298 248.892Z" fill="#263238"/>
<path d="M150.71 253.274C153.366 252.5 156.063 251.874 158.788 251.398C160.188 251.174 161.588 251.02 162.904 250.908L164.878 250.768C165.606 250.768 166.278 250.768 167.062 250.768C167.146 250.768 167.16 250.88 167.062 250.894C166.376 250.964 165.662 251.146 165.018 251.244L162.974 251.566L158.886 252.21C156.161 252.602 153.435 253.041 150.71 253.526C150.598 253.526 150.57 253.316 150.71 253.274Z" fill="#263238"/>
<path d="M145.6 200.536C145.936 201.936 152.6 210.966 158.97 210.658C161.042 210.546 160.986 199.206 160.986 199.206L161.168 198.366L163.8 186.62L150.024 177.8L148.036 176.638C148.036 176.638 147.532 179.9 146.944 183.96C146.944 184.156 146.944 184.338 146.944 184.534C146.944 184.73 146.86 184.982 146.832 185.206C146.734 185.808 146.636 186.424 146.566 187.04C146.496 187.656 146.44 187.978 146.384 188.44L146.216 189.924C145.773 193.444 145.567 196.989 145.6 200.536Z" fill="#EB9481"/>
<path d="M147 183.946C148.195 187.24 150.09 190.235 152.556 192.725C155.021 195.214 157.998 197.139 161.28 198.366L163.8 186.62L150.024 177.8L148.036 176.638C148.036 176.638 147.532 179.886 147 183.946Z" fill="#263238"/>
<path d="M180.362 167.454C184.464 188.174 172.508 192.962 168.042 193.844C163.996 194.642 150.08 196.826 143.864 176.652C137.648 156.478 145.992 148.022 155.176 145.712C164.36 143.402 176.274 146.748 180.362 167.454Z" fill="#EB9481"/>
<path d="M174.314 164.29C173.852 164.395 173.385 164.474 172.914 164.528C172.423 164.689 171.893 164.689 171.402 164.528C171.26 164.442 171.15 164.312 171.09 164.158C171.029 164.003 171.021 163.833 171.066 163.674C171.205 163.372 171.423 163.113 171.696 162.923C171.969 162.733 172.288 162.62 172.62 162.596C173.281 162.442 173.976 162.542 174.566 162.876C174.687 162.964 174.781 163.084 174.837 163.223C174.894 163.362 174.909 163.514 174.883 163.662C174.857 163.809 174.789 163.947 174.689 164.058C174.588 164.169 174.458 164.249 174.314 164.29Z" fill="#263238"/>
<path d="M159.6 168.532C160.072 168.46 160.539 168.362 161 168.238C161.518 168.208 162.01 168.006 162.4 167.664C162.506 167.536 162.564 167.375 162.564 167.209C162.564 167.043 162.506 166.882 162.4 166.754C162.164 166.519 161.869 166.353 161.546 166.274C161.222 166.195 160.883 166.206 160.566 166.306C159.892 166.393 159.276 166.733 158.844 167.258C158.747 167.385 158.69 167.537 158.681 167.696C158.671 167.855 158.71 168.014 158.791 168.151C158.872 168.288 158.993 168.397 159.137 168.465C159.281 168.533 159.442 168.557 159.6 168.532Z" fill="#263238"/>
<path d="M162.708 171.192C162.708 171.192 162.61 171.192 162.624 171.332C162.876 172.732 162.932 174.412 161.728 175.07C161.728 175.07 161.728 175.168 161.728 175.154C163.282 174.692 163.184 172.48 162.708 171.192Z" fill="#263238"/>
<path d="M161.224 169.89C158.914 170.058 159.418 174.678 161.56 174.51C163.702 174.342 163.156 169.75 161.224 169.89Z" fill="#263238"/>
<path d="M160.342 170.24C159.964 170.534 159.628 171.038 159.138 171.15C158.648 171.262 158.116 170.828 157.738 170.408C157.738 170.408 157.654 170.408 157.738 170.408C157.822 171.29 158.256 172.158 159.222 172.186C160.188 172.214 160.622 171.36 160.748 170.45C160.664 170.338 160.496 170.114 160.342 170.24Z" fill="#263238"/>
<path d="M171.486 169.848C171.486 169.848 171.598 169.848 171.598 169.96C171.71 171.36 172.06 173.026 173.404 173.362V173.446C171.794 173.39 171.346 171.22 171.486 169.848Z" fill="#263238"/>
<path d="M172.606 168.224C174.888 167.818 175.532 172.424 173.418 172.788C171.304 173.152 170.688 168.574 172.606 168.224Z" fill="#263238"/>
<path d="M173.6 168.392C174.006 168.588 174.426 168.98 174.86 168.938C175.294 168.896 175.672 168.35 175.924 167.832C175.924 167.832 175.924 167.832 176.008 167.832C176.148 168.7 176.008 169.666 175.168 169.946C174.328 170.226 173.768 169.54 173.418 168.686C173.362 168.574 173.446 168.308 173.6 168.392Z" fill="#263238"/>
<path d="M165.312 183.26C165.676 183.582 166.054 184.016 166.572 184.03C167.107 183.981 167.626 183.824 168.098 183.568C168.098 183.568 168.182 183.568 168.098 183.568C167.912 183.862 167.65 184.101 167.339 184.259C167.029 184.417 166.681 184.487 166.334 184.464C166.066 184.406 165.819 184.276 165.62 184.089C165.42 183.902 165.275 183.663 165.2 183.4C165.2 183.4 165.2 183.218 165.312 183.26Z" fill="#263238"/>
<path d="M170.646 177.38C170.646 177.38 171.206 179.466 171.332 180.474C171.332 180.572 171.108 180.642 170.758 180.712C169.912 180.974 169.011 180.998 168.152 180.784C167.293 180.569 166.509 180.123 165.886 179.494C165.886 179.41 165.886 179.284 166.026 179.34C167.416 180.061 169.003 180.312 170.548 180.054C170.548 179.774 169.47 176.498 169.624 176.47C170.415 176.444 171.206 176.524 171.976 176.708C170.954 172.312 169.176 168.112 168.266 163.716C168.266 163.562 168.462 163.478 168.518 163.618C170.509 168.058 172.048 172.687 173.11 177.436C173.236 177.996 171.08 177.492 170.646 177.38Z" fill="#263238"/>
<path d="M170.618 180.348C170.161 181.239 169.481 181.996 168.644 182.546C168.179 182.835 167.636 182.972 167.09 182.938C165.914 182.84 165.69 181.804 165.69 180.88C165.726 180.405 165.816 179.935 165.956 179.48C167.376 180.264 169.011 180.568 170.618 180.348Z" fill="#263238"/>
<path d="M168.644 182.546C168.179 182.835 167.636 182.972 167.09 182.938C165.914 182.84 165.69 181.804 165.69 180.88C166.299 180.779 166.924 180.889 167.461 181.192C167.998 181.495 168.416 181.973 168.644 182.546Z" fill="#FF9ABB"/>
<path d="M146.174 178.472C150.136 178.472 149.87 169.372 149.87 169.372C149.87 169.372 166.054 164.206 165.55 150.528C168.419 155.719 173.177 159.605 178.836 161.378C178.836 161.378 176.162 146.678 164.024 145.46C164.024 145.46 148.722 142.226 142.17 154.938C135.618 167.65 143.514 178.514 146.174 178.472Z" fill="#263238"/>
<path d="M165.466 149.52C165.949 151.574 165.992 153.706 165.592 155.778C165.228 157.885 164.427 159.893 163.24 161.672C162.946 162.117 162.624 162.543 162.274 162.946L161.784 163.576C161.602 163.772 161.406 163.954 161.21 164.136C161.014 164.318 160.454 164.878 160.062 165.228L158.774 166.18C158.564 166.334 158.354 166.488 158.13 166.628L157.444 167.02L156.044 167.79C155.092 168.21 154.112 168.574 153.132 168.924C154.028 168.378 154.952 167.93 155.82 167.384L157.108 166.516L157.738 166.082C157.948 165.928 158.13 165.76 158.326 165.592L159.488 164.612C159.866 164.262 160.202 163.884 160.552 163.52L161.084 162.974L161.546 162.372C161.865 161.985 162.159 161.578 162.428 161.154C163.564 159.444 164.393 157.549 164.878 155.554C165.129 154.566 165.302 153.559 165.396 152.544C165.5 151.539 165.523 150.528 165.466 149.52Z" fill="#263238"/>
<path d="M140 166.026L139.02 168.014L145.572 172.802L147.672 168.336L140 166.026ZM145.11 170.758L140.588 167.818L140.798 167.356L145.88 169.19L145.11 170.758Z" fill="black"/>
<path d="M140.28 162.512L140.126 164.724L148.008 166.698L148.274 161.756L140.28 162.512ZM146.804 164.962L141.498 163.954V163.436L146.902 163.226L146.804 164.962Z" fill="black"/>
<path d="M149.212 176.694C149.212 176.694 143.906 170.632 141.12 172.592C138.334 174.552 142.8 183.68 146.426 184.59C146.883 184.742 147.367 184.8 147.847 184.76C148.328 184.719 148.795 184.582 149.221 184.355C149.646 184.129 150.021 183.818 150.323 183.442C150.625 183.066 150.847 182.633 150.976 182.168L149.212 176.694Z" fill="#EB9481"/>
<path d="M142.464 175.182C142.464 175.182 142.464 175.252 142.464 175.266C143.646 175.704 144.723 176.385 145.625 177.265C146.526 178.145 147.234 179.205 147.7 180.376C147.532 180.147 147.315 179.957 147.066 179.82C146.817 179.682 146.541 179.601 146.258 179.581C145.974 179.561 145.689 179.603 145.423 179.704C145.157 179.805 144.917 179.963 144.718 180.166C144.718 180.166 144.718 180.306 144.802 180.292C145.215 180.107 145.675 180.055 146.119 180.143C146.563 180.23 146.969 180.454 147.28 180.782C147.81 181.338 148.279 181.948 148.68 182.602C148.806 182.812 149.198 182.602 149.086 182.406C148.75 179.2 145.852 175.126 142.464 175.182Z" fill="#263238"/>
<path d="M133.35 206.08C115.542 236.796 88.928 307.3 84.112 317.38C80.85 324.226 116.634 342.272 118.16 337.288C120.092 330.918 144.928 248.794 146.552 212.156C147.308 195.188 139.048 196.252 133.35 206.08Z" fill="#EB9481"/>
<path d="M103.6 352.968C105.49 351.316 106.4 352.296 105.546 356.664C104.692 361.032 97.776 377.664 103.768 379.554C109.76 381.444 119.168 357.938 120.036 350.56C120.904 343.182 119.56 330.96 119.56 330.96C116.802 335.188 109.2 344.764 103.6 352.968Z" fill="#EB9481"/>
<path d="M114.1 378.644L69.3 370.58C67.9 370.468 67.046 369.544 67.284 368.508L71.386 350.196C71.6105 349.655 72.0091 349.204 72.5189 348.915C73.0286 348.626 73.6202 348.515 74.2 348.6L119 356.622C120.4 356.748 121.254 357.672 121.016 358.694L116.914 377.006C116.703 377.56 116.309 378.024 115.797 378.322C115.285 378.621 114.686 378.734 114.1 378.644Z" fill="#A6A6A6"/>
<path d="M114.618 376.488L69.7341 368.424C68.3341 368.298 67.494 367.374 67.718 366.352L71.8341 348.04C72.0423 347.487 72.4341 347.023 72.9438 346.725C73.4536 346.427 74.0503 346.313 74.6341 346.402L119.518 354.466C120.918 354.578 121.758 355.502 121.534 356.524L117.46 374.85C117.246 375.408 116.847 375.875 116.329 376.173C115.812 376.471 115.208 376.582 114.618 376.488Z" fill="#C7C7C7"/>
<path d="M113.778 370.678C112.742 370.286 111.762 370.678 111.594 371.546C111.572 372.044 111.715 372.535 112.001 372.943C112.287 373.351 112.7 373.652 113.176 373.8C114.212 374.192 115.192 373.8 115.36 372.946C115.386 372.446 115.244 371.952 114.958 371.541C114.671 371.13 114.256 370.827 113.778 370.678Z" fill="#263238"/>
<path d="M86.506 314.16C77.364 326.48 69.272 340.984 69.076 357.014C69.0167 358.794 69.5538 360.544 70.602 361.984C70.392 369.152 73.71 371.42 73.71 371.42C75.558 378.154 79.31 380.002 79.31 380.002C79.31 380.002 79.842 385.784 83.916 385.7C87.99 385.616 90.23 376.138 93.716 369.222C101.878 353.346 116.718 335.314 119.518 330.974L86.506 314.16Z" fill="#EB9481"/>
<path d="M89.418 348.824C86.9829 353.445 84.864 358.225 83.076 363.132C81.4484 368.634 80.2317 374.25 79.436 379.932C79.436 379.969 79.4213 380.005 79.395 380.031C79.3687 380.057 79.3331 380.072 79.296 380.072C79.2589 380.072 79.2233 380.057 79.197 380.031C79.1708 380.005 79.156 379.969 79.156 379.932C79.6017 368.83 83.078 358.063 89.208 348.796C89.348 348.502 89.6 348.6 89.418 348.824Z" fill="#263238"/>
<path d="M80.556 342.51C78.568 347.228 75.124 355.53 73.878 371.434C73.878 371.434 73.794 371.434 73.78 371.434C73.2353 361.34 75.5036 351.293 80.332 342.412C80.486 342.132 80.696 342.188 80.556 342.51Z" fill="#263238"/>
<path d="M75.74 339.206C72.66 347.354 71.736 352.884 70.644 361.942H70.546C70.714 351.512 71.946 347.732 75.474 339.052C75.6 338.8 75.852 338.884 75.74 339.206Z" fill="#263238"/>
</svg>
